<?xml version="1.0" encoding="UTF-8"?>
<svg xmlns="http://www.w3.org/2000/svg" id="b" viewBox="0 0 787.85 136.64">
  <defs>
    <style>.d{stroke:#000;stroke-miterlimit:10;}.e{fill:#fec234;fill-rule:evenodd;}.f{fill:#4fccb8;}</style>
  </defs>
  <g id="c">
    <g>
      <path class="f" d="M63.69,107.58c13.67,6.77,27.55,9.88,42.5,7.4,3.65-.61,6.13-2.08,5.8-6.44-.17-2.25,.7-4.59,.46-6.82-1.02-9.27,1.24-16.95,9.41-22.38,3.78-2.51,3.51-6.06,1.56-9.74-2.45-4.64-5.25-9.15-7.1-14.03-1.84-4.86-3.32-10.03-3.85-15.18-1.2-11.64-8.57-18.76-17.52-24.29C65.81-1.9,27.59,6.7,11.1,39.91-.34,62.92,4.33,89.21,22.39,106.83c9.5,9.27,8.16,19.05,6.6,29.81-.44-4.42-1.26-8.85-1.21-13.27,.07-5.05-1.94-8.58-5.65-11.79-9.51-8.21-16.4-18.5-19.78-30.47C-.35,71.54-.76,61.64,1.31,51.41c2.73-13.49,8.84-24.6,18.55-33.97C45.41-7.22,88.47-5.54,111.77,21.3c3.2,3.69,5.96,8.72,6.63,13.45,1.69,11.99,5.48,23.01,11.26,33.55,3.32,6.06,2.7,10.3-2.79,14.25-6.82,4.91-9.68,10.99-8.84,19.24,.26,2.57-.06,5.34-.75,7.84-1.27,4.6-3.63,8.62-9.04,9.03-14.83,1.12-29.14-.48-42.01-8.79-.95-.61-1.7-1.52-2.55-2.29Z"></path>
      <path class="e" d="M46.79,35.47c-2.02-.28-4.07-.28-6.09,0l-.87,5.37c-1.4,.32-2.75,.81-4.03,1.47l-4.12-3.55c-1.73,1.09-3.3,2.41-4.67,3.92l2.78,4.67c-.86,1.14-1.58,2.39-2.14,3.71l-5.44-.07c-.62,1.94-.98,3.96-1.06,6l5.14,1.79c.07,1.43,.32,2.85,.74,4.22l-4.22,3.44c.77,1.89,1.8,3.66,3.05,5.28l5.09-1.93c.98,1.05,2.08,1.97,3.28,2.75l-1.02,5.34c1.81,.95,3.73,1.65,5.73,2.08l2.66-4.75c1.42,.18,2.86,.18,4.28,0l2.66,4.75c1.99-.43,3.92-1.13,5.73-2.08l-1.02-5.34c1.2-.78,2.31-1.7,3.28-2.75l5.09,1.93c1.25-1.61,2.27-3.39,3.05-5.28l-4.22-3.44c.42-1.37,.67-2.79,.74-4.22l5.14-1.79c-.08-2.04-.44-4.06-1.06-6l-5.44,.07c-.56-1.32-1.28-2.57-2.14-3.71l2.79-4.67c-1.37-1.51-2.94-2.83-4.67-3.92l-4.12,3.55c-1.28-.65-2.63-1.14-4.03-1.47l-.87-5.37h0Zm-3.05,11.44c6.05,0,10.96,4.91,10.96,10.96s-4.91,10.96-10.96,10.96-10.96-4.91-10.96-10.96,4.91-10.96,10.96-10.96h0Z"></path>
      <path class="e" d="M74.33,17.54c-.9-.25-1.82-.42-2.76-.5l-1.84,3.37c-.95,.04-1.9,.21-2.81,.48l-2.85-2.57c-.85,.39-1.67,.85-2.43,1.39l.76,3.76c-.7,.65-1.32,1.38-1.84,2.18l-3.84-.13c-.4,.84-.73,1.72-.97,2.63l3,2.39c-.12,.95-.13,1.9-.01,2.85l-3.02,2.37c.23,.91,.55,1.79,.95,2.64l3.84-.1c.52,.8,1.13,1.54,1.82,2.19l-.8,3.76c.76,.55,1.57,1.02,2.42,1.41l2.88-2.54c.91,.28,1.85,.45,2.81,.51l1.8,3.39c.93-.07,1.86-.23,2.76-.47l.57-3.8c.88-.37,1.71-.84,2.48-1.41l3.56,1.44c.67-.65,1.28-1.37,1.81-2.14l-2-3.28c.44-.85,.77-1.75,.99-2.67l3.65-1.19c.09-.93,.1-1.87,.01-2.8l-3.64-1.22c-.21-.93-.53-1.83-.96-2.68l2.03-3.26c-.53-.77-1.13-1.49-1.79-2.16l-3.57,1.4c-.76-.58-1.59-1.06-2.46-1.44l-.54-3.8h0Zm-2.75,7.31c3.96,.72,6.59,4.52,5.87,8.48s-4.52,6.59-8.48,5.87c-3.96-.72-6.59-4.52-5.87-8.48s4.52-6.59,8.48-5.87h0Z"></path>
      <path class="e" d="M82.72,46.98c-.93-.09-1.87-.09-2.8,0l-1.21,3.65c-.93,.21-1.83,.54-2.68,.98l-3.27-2.02c-.77,.53-1.49,1.14-2.15,1.8l1.42,3.57c-.57,.76-1.05,1.59-1.43,2.47l-3.8,.55c-.25,.9-.41,1.83-.49,2.76l3.38,1.82c.05,.95,.22,1.9,.5,2.81l-2.55,2.87c.39,.85,.86,1.66,1.4,2.43l3.76-.78c.65,.7,1.38,1.31,2.18,1.83l-.11,3.84c.85,.4,1.73,.72,2.63,.96l2.38-3.01c.95,.12,1.9,.12,2.85,0l2.38,3.01c.91-.24,1.79-.56,2.63-.96l-.11-3.84c.8-.52,1.53-1.13,2.18-1.83l3.76,.78c.54-.76,1.01-1.58,1.4-2.43l-2.55-2.87c.28-.91,.45-1.86,.5-2.81l3.38-1.82c-.08-.93-.24-1.86-.49-2.76l-3.8-.55c-.37-.88-.85-1.71-1.43-2.47l1.42-3.57c-.66-.67-1.38-1.27-2.15-1.8l-3.27,2.02c-.85-.43-1.75-.76-2.68-.98l-1.21-3.65h0Zm-1.4,7.68c4.02,0,7.29,3.27,7.29,7.29s-3.27,7.29-7.29,7.29-7.29-3.27-7.29-7.29,3.27-7.29,7.29-7.29h0Z"></path>
    </g>
    <g>
      <g>
        <path class="d" d="M182.46,60.36l-2.72,4.23c-4.78,2.53-10.03,3.8-15.76,3.8-8.22,0-14.93-2.24-20.13-6.73-5.44-4.68-8.17-11.08-8.17-19.2s2.89-14.54,8.67-19.41c5.4-4.59,12.2-6.88,20.42-6.88,3.63,0,7.4,.5,11.32,1.5,.67,.24,1.69,.55,3.08,.93,.81,.19,1.62,.36,2.44,.5-1.1,3.82-1.65,7.48-1.65,10.96h-1.86c-.1-3.2-1.79-5.92-5.09-8.17-2.96-2.05-6.09-3.08-9.39-3.08-6.45,0-11.61,2.22-15.47,6.66-3.68,4.25-5.52,9.65-5.52,16.19,0,6.97,2.21,12.59,6.63,16.84,4.42,4.25,10.14,6.38,17.16,6.38,2.82,0,5.56-.45,8.24-1.36,3.06-1,5.37-2.44,6.95-4.3l.86,1.15Z"></path>
        <path class="d" d="M242.78,67.17c-4.59-.24-8.19-.36-10.82-.36s-6.04,.12-10.53,.36v-1.79c3.82-.19,6.08-.56,6.77-1.11,.69-.55,1.04-2.52,1.04-5.91v-16.12c-1.05-.1-2.65-.14-4.8-.14h-20.63c-2.1,0-3.65,.05-4.66,.14v16.98c0,2.91,.52,4.68,1.58,5.3,.57,.38,2.65,.67,6.23,.86v1.79c-4.49-.24-8.02-.36-10.6-.36s-6.21,.12-10.75,.36v-1.79c4.01-.19,6.23-.43,6.66-.72,1-.52,1.5-2.41,1.5-5.66V25.54c0-3.3-.38-5.23-1.15-5.8-.53-.38-2.63-.69-6.3-.93v-1.79c3.53,.14,7.02,.22,10.46,.22,3.15,0,6.3-.07,9.46-.22v1.79c-3.49,.24-5.49,.55-6.02,.93-.72,.57-1.07,2.44-1.07,5.59v13.76c2.1,.1,3.68,.14,4.73,.14h20.42c2.2,0,3.84-.05,4.94-.14v-13.18c0-3.39-.31-5.4-.93-6.02-.57-.48-2.63-.84-6.16-1.07v-1.79c3.1,.14,6.18,.22,9.24,.22,3.63,0,7.19-.07,10.67-.22v1.79c-3.82,.24-5.99,.57-6.52,1-.62,.57-.93,2.6-.93,6.09V58.35c0,3.53,.41,5.59,1.22,6.16,.52,.38,2.84,.67,6.95,.86v1.79Z"></path>
        <path class="d" d="M301.17,67.17c-6.88-.14-10.29-.21-10.25-.21-1,0-2.52,.04-4.55,.11-2.03,.07-3.57,.11-4.62,.11v-2.15c1.24-.1,2.51-.17,3.8-.21,1.91-.24,2.87-.69,2.87-1.36,0-.86-.69-2.98-2.08-6.38-.91-2.2-1.84-4.39-2.79-6.59h-20.92c-3.01,6.83-4.51,10.99-4.51,12.47,0,.91,.86,1.5,2.58,1.79,1.15,.1,2.32,.19,3.51,.29v2.15h-16.48v-2.15c2.1-.19,3.44-.41,4.01-.64,.96-.48,1.81-1.55,2.58-3.22l12.68-28.87c.57-1.34,1.24-3.13,2.01-5.37,.91-2.77,1.36-4.63,1.36-5.59,0-1.72-.5-2.63-1.51-2.72v-1.43h7.38c.14,2.77,3.25,11.1,9.31,25,6.11,14.09,9.98,21.49,11.61,22.21,.57,.24,1.91,.45,4.01,.64v2.15Zm-18.91-19.49l-8.96-21.71c-2.15,4.78-5.3,12.01-9.46,21.71h18.41Z"></path>
        <path class="d" d="M346.37,30.41c0,4.59-1.77,8.12-5.3,10.6-3.06,2.2-6.97,3.3-11.75,3.3-1.39,0-2.77-.14-4.15-.43l-.57-2.15c1.62,.43,3.03,.64,4.23,.64,3.15,0,5.91-.94,8.28-2.83,2.36-1.89,3.55-4.36,3.55-7.41,0-3.77-1.24-6.84-3.73-9.21-2.48-2.36-5.61-3.55-9.38-3.55-2.48,0-5.13,.31-7.95,.93V57.71c0,3.01,.19,4.97,.57,5.87,.38,.91,1.27,1.43,2.65,1.58,2.15,.05,4.27,.12,6.38,.22v1.79c-8.6-.14-12.87-.21-12.82-.21l-9.24,.21v-1.79c3.77-.38,5.85-.76,6.23-1.15,.57-.57,.86-2.75,.86-6.52V24.61c0-2.72-.53-4.37-1.58-4.94-.43-.29-2.25-.57-5.44-.86v-1.79c8.17,.14,12.27,.22,12.32,.22,1.34,0,3.39-.04,6.16-.11,2.77-.07,4.85-.11,6.23-.11,3.63,0,6.95,1.34,9.96,4.01,3.01,2.68,4.51,5.8,4.51,9.38Z"></path>
        <path class="d" d="M399.82,16.3c-1.29,2.01-2.44,5.21-3.44,9.6h-1.72c.33-2.2,.5-3.25,.5-3.15,0-1.96-3.97-2.94-11.89-2.94-1.86,0-3.77,.07-5.73,.21-.19,1.77-.29,4.47-.29,8.1v31.24c0,2.29,.2,3.79,.61,4.48,.4,.69,1.73,1.16,3.98,1.4,1.58,.05,3.13,.1,4.66,.14v1.79c-6.54-.24-10.56-.36-12.04-.36-4.54,0-8.48,.24-11.82,.72v-1.79c1.24-.14,2.72-.33,4.44-.57,2.15-.33,3.49-1,4.01-2.01,.29-.57,.43-2.12,.43-4.66V28.12c0-3.2-.12-5.9-.36-8.1-1.62-.09-2.84-.14-3.65-.14-7.5,0-11.99,.93-13.47,2.79-.53,.67-1.22,1.82-2.08,3.44h-1.79c1.48-3.49,2.36-6.73,2.65-9.74l1-.22c.86,.81,5.52,1.22,13.97,1.22h17.05c8.5,0,13.21-.5,14.11-1.5l.86,.43Z"></path>
        <path class="d" d="M446.03,56.56c-.86,4.78-2.51,8.48-4.94,11.1-3.58-.33-7.74-.53-12.47-.57-3.3-.1-7.57-.12-12.82-.07h-12.18v-1.71c3.3-.33,5.13-.62,5.52-.86,1-.57,1.5-2.14,1.5-4.71V25.38c0-2.9-.26-4.69-.79-5.36-.62-.86-2.32-1.38-5.09-1.58v-1.43c3.82,.14,7.64,.22,11.46,.22,12.47,0,21.04-.24,25.72-.72-.72,3.73-1.07,7.5-1.07,11.32h-2.15c0-4.01-.22-6.18-.64-6.52-1.48-1.1-6.14-1.65-13.97-1.65-2.91,0-5.42,.21-7.52,.64v19.92c1.86,.14,4.68,.21,8.45,.21,3.39,0,5.49-.17,6.3-.5,1.48-.62,2.41-2.34,2.79-5.16h1.72c-1,5.25-1.58,9.98-1.72,14.19h-1.79v-2.94c0-1.48-.91-2.39-2.72-2.72-.43-.1-1.93-.14-4.51-.14-4.58,0-7.43,.07-8.52,.22v20.49c1.81,.43,4.27,.64,7.38,.64,1.86,0,4.44-.12,7.74-.36,3.96-.33,6.35-.69,7.16-1.07,1.19-.57,2.34-1.49,3.44-2.76,1.1-1.27,1.74-2.52,1.93-3.76h1.79Z"></path>
        <path class="d" d="M504.41,67.31c-3.82-.24-6.16-.36-7.02-.36h-6.59c-3.34-4.61-6.78-8.95-10.32-13.04-5.3-6.17-9.12-9.64-11.46-10.4v-2.07c1.53,.38,2.72,.57,3.58,.57,3.15,0,5.91-.94,8.27-2.83,2.36-1.89,3.55-4.36,3.55-7.42,0-3.77-1.24-6.78-3.73-9.03-2.48-2.24-5.61-3.37-9.38-3.37-2.63,0-5.16,.31-7.59,.93V58.62c0,2.54,.15,4.22,.47,5.03,.31,.81,.99,1.29,2.04,1.44,1.67,.14,3.32,.26,4.94,.36v1.87c-7.16-.24-10.63-.36-10.39-.36-1.1,0-2.85,.06-5.27,.18-2.41,.12-4.19,.18-5.34,.18v-1.8c4.11,0,6.49-.33,7.16-1.01,.67-.67,1-2.44,1-5.32V24.63c0-2.83-.43-4.5-1.29-5.03-.34-.24-2.1-.5-5.3-.79v-1.8c3.87,.14,7.74,.22,11.61,.22,1.39,0,3.45-.04,6.2-.11,2.75-.07,4.79-.11,6.13-.11,3.63,0,6.95,1.34,9.96,4.01,3.01,2.68,4.51,5.8,4.51,9.38s-1.22,6.81-3.65,9.24c-2.44,2.44-5.49,3.7-9.17,3.8,2.05,2.2,4.25,4.73,6.59,7.59,2.01,2.48,3.99,4.94,5.95,7.38,2.63,2.91,5.09,4.78,7.38,5.59,2.87,1,5.25,1.5,7.17,1.5v1.79Z"></path>
        <path class="d" d="M587.52,67.17c-4.59-.24-8.19-.36-10.82-.36s-6.04,.12-10.53,.36v-1.79c3.82-.19,6.08-.56,6.77-1.11,.69-.55,1.04-2.52,1.04-5.91v-16.12c-1.05-.1-2.65-.14-4.8-.14h-20.63c-2.1,0-3.65,.05-4.66,.14v16.98c0,2.91,.52,4.68,1.58,5.3,.57,.38,2.65,.67,6.23,.86v1.79c-4.49-.24-8.02-.36-10.6-.36s-6.21,.12-10.75,.36v-1.79c4.01-.19,6.23-.43,6.66-.72,1-.52,1.5-2.41,1.5-5.66V25.54c0-3.3-.38-5.23-1.15-5.8-.53-.38-2.63-.69-6.3-.93v-1.79c3.53,.14,7.02,.22,10.46,.22,3.15,0,6.3-.07,9.46-.22v1.79c-3.49,.24-5.49,.55-6.02,.93-.72,.57-1.07,2.44-1.07,5.59v13.76c2.1,.1,3.68,.14,4.73,.14h20.42c2.2,0,3.84-.05,4.94-.14v-13.18c0-3.39-.31-5.4-.93-6.02-.57-.48-2.63-.84-6.16-1.07v-1.79c3.1,.14,6.18,.22,9.24,.22,3.63,0,7.19-.07,10.67-.22v1.79c-3.82,.24-5.99,.57-6.52,1-.62,.57-.93,2.6-.93,6.09V58.35c0,3.53,.4,5.59,1.22,6.16,.52,.38,2.84,.67,6.95,.86v1.79Z"></path>
        <path class="d" d="M643.97,40.37c0,7.79-2.46,14.35-7.38,19.7-5.11,5.54-11.51,8.31-19.2,8.31s-13.21-2.53-17.7-7.59c-4.3-4.87-6.45-10.98-6.45-18.34s2.34-13.93,7.02-18.88c4.68-4.94,10.82-7.42,18.41-7.42s13.83,2.13,18.41,6.38c4.59,4.25,6.88,10.2,6.88,17.84Zm-6.66,2.08c0-6.88-1.48-12.44-4.44-16.69-3.39-4.87-8.38-7.31-14.97-7.31-6.02,0-10.6,2.22-13.76,6.66-2.82,3.92-4.23,8.98-4.23,15.19,0,6.83,1.58,12.59,4.73,17.27,3.63,5.44,8.67,8.17,15.12,8.17,6.02,0,10.58-2.48,13.68-7.45,2.58-4.16,3.87-9.43,3.87-15.83Z"></path>
        <path class="d" d="M703.36,18.81c-1.1,.05-2.2,.12-3.3,.21-1.48,.19-2.44,.6-2.87,1.22-.43,.62-.64,2.44-.64,5.44l-.14,21.21c-.05,6.73-1.67,11.94-4.87,15.62-3.34,3.92-8.31,5.87-14.9,5.87-12.75,0-19.15-5.75-19.2-17.27l-.14-25.65c0-3.06-.53-4.94-1.58-5.66-.62-.43-2.7-.86-6.23-1.29v-1.86c4.77,.38,8.38,.57,10.82,.57l10.53-.22v1.79c-1.15,.05-2.29,.12-3.44,.21-1.58,.19-2.58,.6-3.01,1.22-.91,1.29-1.36,2.99-1.36,5.09l.14,25.58c.05,4.39,1.58,7.79,4.59,10.17,2.77,2.15,6.42,3.22,10.96,3.22s8.06-1.37,10.71-4.12c2.65-2.75,4-6.39,4.05-10.92l.14-23.93c0-3.1-.36-4.94-1.07-5.52-.53-.43-2.44-.76-5.73-1v-1.79c5.59,.14,8.33,.22,8.24,.22,.95,0,2.35-.04,4.19-.11s3.21-.11,4.12-.11v1.79Z"></path>
        <path class="d" d="M740.97,52.98c0,9.7-5.97,14.54-17.91,14.54-4.15,0-8.88-1.77-14.18-5.3,.05-1.62-.14-3.56-.57-5.8-.34-1.91-.69-3.82-1.07-5.73h1.93c.33,3.49,1.98,6.66,4.94,9.53s5.99,4.3,9.1,4.3c3.58,0,6.42-.79,8.53-2.36,2.39-1.77,3.58-4.37,3.58-7.81,0-5.44-4.23-8.98-12.68-10.6-3.82-.72-7.09-2.1-9.81-4.16-3.39-2.53-5.09-5.52-5.09-8.96,0-4.92,1.72-8.64,5.16-11.18,3.01-2.2,7.07-3.3,12.18-3.3,1.72,0,3.88,.49,6.48,1.47,2.6,.98,4.6,1.49,5.98,1.54-.62,3.39-.93,6.9-.93,10.53h-1.93c-.1-2.67-1.3-5.16-3.62-7.45-2.32-2.29-4.81-3.44-7.49-3.44-3.15,0-5.69,.96-7.63,2.87-1.93,1.91-2.9,4.44-2.9,7.59,0,4.87,3.84,8,11.54,9.39,10.94,1.96,16.41,6.73,16.41,14.33Z"></path>
        <path class="d" d="M787.25,56.56c-.86,4.78-2.51,8.48-4.94,11.1-3.58-.33-7.74-.53-12.47-.57-3.3-.1-7.57-.12-12.82-.07h-12.18v-1.71c3.3-.33,5.13-.62,5.52-.86,1-.57,1.5-2.14,1.5-4.71V25.38c0-2.9-.26-4.69-.79-5.36-.62-.86-2.32-1.38-5.09-1.58v-1.43c3.82,.14,7.64,.22,11.46,.22,12.47,0,21.04-.24,25.72-.72-.72,3.73-1.07,7.5-1.07,11.32h-2.15c0-4.01-.22-6.18-.64-6.52-1.48-1.1-6.14-1.65-13.97-1.65-2.91,0-5.42,.21-7.52,.64v19.92c1.86,.14,4.68,.21,8.45,.21,3.39,0,5.49-.17,6.3-.5,1.48-.62,2.41-2.34,2.79-5.16h1.72c-1,5.25-1.58,9.98-1.72,14.19h-1.79v-2.94c0-1.48-.91-2.39-2.72-2.72-.43-.1-1.93-.14-4.51-.14-4.58,0-7.43,.07-8.52,.22v20.49c1.81,.43,4.27,.64,7.38,.64,1.86,0,4.44-.12,7.74-.36,3.96-.33,6.35-.69,7.16-1.07,1.19-.57,2.34-1.49,3.44-2.76,1.1-1.27,1.74-2.52,1.93-3.76h1.79Z"></path>
      </g>
      <g>
        <path d="M158.03,116.39l-1.26,2.04c-2.21,1.22-4.64,1.83-7.29,1.83-3.8,0-6.9-1.08-9.31-3.24-2.52-2.26-3.78-5.34-3.78-9.25s1.34-7.01,4.01-9.36c2.5-2.21,5.65-3.31,9.45-3.31,1.68,0,3.42,.24,5.24,.72,.31,.12,.78,.26,1.43,.45,.38,.09,.75,.17,1.13,.24-.51,1.84-.76,3.6-.76,5.28h-.86c-.04-1.54-.83-2.85-2.35-3.94-1.37-.99-2.82-1.48-4.34-1.48-2.98,0-5.37,1.07-7.16,3.21-1.7,2.05-2.55,4.65-2.55,7.8,0,3.36,1.02,6.06,3.07,8.11,2.04,2.05,4.69,3.07,7.94,3.07,1.3,0,2.57-.22,3.81-.66,1.41-.48,2.49-1.17,3.22-2.07l.4,.55Z"></path>
        <path d="M183.62,106.76c0,3.75-1.14,6.92-3.41,9.49-2.36,2.67-5.33,4-8.88,4s-6.11-1.22-8.19-3.66c-1.99-2.35-2.98-5.29-2.98-8.84s1.08-6.71,3.25-9.1c2.17-2.38,5-3.57,8.52-3.57s6.4,1.02,8.52,3.07c2.12,2.05,3.18,4.91,3.18,8.6Zm-3.08,1c0-3.31-.69-5.99-2.05-8.04-1.57-2.35-3.88-3.52-6.93-3.52-2.78,0-4.91,1.07-6.36,3.21-1.3,1.89-1.96,4.33-1.96,7.32,0,3.29,.73,6.06,2.19,8.32,1.68,2.62,4.01,3.94,6.99,3.94,2.78,0,4.89-1.2,6.33-3.59,1.19-2,1.79-4.54,1.79-7.63Z"></path>
        <path d="M211.1,96.37c-.51,.02-1.02,.06-1.52,.1-.69,.09-1.13,.29-1.33,.59-.2,.3-.3,1.17-.3,2.62l-.07,10.22c-.02,3.24-.77,5.75-2.25,7.53-1.55,1.89-3.84,2.83-6.89,2.83-5.9,0-8.86-2.77-8.88-8.32l-.07-12.36c0-1.47-.24-2.38-.73-2.73-.29-.21-1.25-.41-2.88-.62v-.9c2.21,.18,3.88,.28,5,.28l4.87-.1v.86c-.53,.02-1.06,.06-1.59,.1-.73,.09-1.19,.29-1.39,.59-.42,.62-.63,1.44-.63,2.45l.07,12.32c.02,2.12,.73,3.75,2.12,4.9,1.28,1.04,2.97,1.55,5.07,1.55s3.73-.66,4.95-1.99c1.23-1.32,1.85-3.08,1.87-5.26l.07-11.53c0-1.5-.17-2.38-.5-2.66-.24-.21-1.13-.37-2.65-.48v-.86c2.58,.07,3.86,.1,3.81,.1,.44,0,1.09-.02,1.94-.05,.85-.03,1.49-.05,1.91-.05v.86Z"></path>
        <path d="M240.23,96.3c-1.41,.07-2.28,.21-2.59,.41-.49,.34-.73,1.17-.73,2.49v18.75c0,1.17,.01,2.05,.03,2.62l-.76,.21c-.31-.55-1.02-1.5-2.12-2.83l-10.41-12.39c-1.15-1.38-2.86-3.45-5.14-6.21h-.07l-.1-.1c-.02,.76-.09,3.59-.2,8.49-.09,3.45-.13,6.28-.13,8.49,0,.9,.11,1.5,.33,1.81s.6,.49,1.13,.54c.62,.05,1.24,.08,1.86,.1v1c-2.03-.09-3.55-.14-4.54-.14-.49,0-1.13,.02-1.92,.07-1.02,.05-1.67,.07-1.96,.07v-1c.68-.02,1.37-.05,2.05-.07,.57-.05,.98-.23,1.21-.55,.23-.32,.36-.99,.38-2,.22-11.6,.33-17.13,.33-16.61,0-1.45-.24-2.44-.73-2.97-.2-.21-.63-.35-1.29-.41-.49-.05-.97-.08-1.46-.1v-.97c2.39,.07,3.57,.1,3.55,.1,.75,0,1.47-.03,2.15-.1,3.2,4.56,5.92,8.26,8.15,11.12,1.81,2.21,4.49,5.54,8.02,9.98h.17v-16.88c0-1.36-.22-2.16-.66-2.42-.13-.07-.96-.17-2.49-.31v-.97l4.01,.1c.29,0,1.59-.09,3.91-.28v.97Z"></path>
        <path d="M257.76,112.83c0,4.67-2.76,7.01-8.29,7.01-1.92,0-4.11-.85-6.56-2.55,.02-.78-.07-1.71-.26-2.8-.15-.92-.32-1.84-.5-2.76h.89c.15,1.68,.92,3.21,2.29,4.59,1.37,1.38,2.77,2.07,4.21,2.07,1.66,0,2.97-.38,3.94-1.14,1.1-.85,1.66-2.11,1.66-3.76,0-2.62-1.96-4.33-5.87-5.11-1.77-.35-3.28-1.01-4.54-2-1.57-1.22-2.35-2.66-2.35-4.32,0-2.37,.8-4.16,2.39-5.39,1.39-1.06,3.27-1.59,5.63-1.59,.8,0,1.8,.24,3,.71,1.2,.47,2.13,.72,2.77,.74-.29,1.63-.43,3.33-.43,5.07h-.89c-.04-1.29-.6-2.49-1.67-3.59-1.07-1.1-2.23-1.66-3.46-1.66-1.46,0-2.63,.46-3.53,1.38-.89,.92-1.34,2.14-1.34,3.66,0,2.35,1.78,3.86,5.34,4.52,5.06,.94,7.59,3.24,7.59,6.9Z"></path>
        <path d="M279.17,114.56c-.4,2.3-1.16,4.09-2.29,5.35-1.66-.16-3.58-.25-5.77-.28-1.52-.05-3.5-.06-5.93-.03h-5.63v-.83c1.52-.16,2.37-.3,2.55-.41,.46-.27,.7-1.03,.7-2.27v-16.55c0-1.4-.12-2.26-.36-2.58-.29-.41-1.07-.67-2.35-.76v-.69c1.77,.07,3.54,.1,5.3,.1,5.77,0,9.73-.11,11.9-.35-.33,1.8-.5,3.61-.5,5.45h-1c0-1.93-.1-2.98-.3-3.14-.69-.53-2.84-.79-6.46-.79-1.35,0-2.51,.1-3.48,.31v9.6c.86,.07,2.17,.1,3.91,.1,1.57,0,2.54-.08,2.92-.24,.68-.3,1.11-1.13,1.29-2.49h.8c-.46,2.53-.73,4.81-.8,6.84h-.83v-1.42c0-.71-.42-1.15-1.26-1.31-.2-.05-.9-.07-2.09-.07-2.12,0-3.44,.03-3.94,.1v9.87c.84,.21,1.98,.31,3.41,.31,.86,0,2.06-.06,3.58-.17,1.84-.16,2.94-.33,3.32-.52,.55-.28,1.08-.72,1.59-1.33,.51-.61,.81-1.21,.9-1.81h.83Z"></path>
        <path d="M300.55,114.56c-.4,2.3-1.16,4.09-2.29,5.35-2.54-.23-6.85-.35-12.93-.35-.02,0-1.49,.03-4.41,.1v-.83c1.52-.16,2.37-.3,2.55-.41,.46-.28,.7-1.04,.7-2.28v-16.6c0-1.4-.12-2.27-.36-2.59-.29-.41-1.07-.67-2.35-.76v-.69c1.39,.07,2.8,.1,4.21,.1,1.55,0,3.06-.03,4.54-.1v.86c-1.63,.12-2.59,.3-2.87,.55-.28,.25-.41,1.2-.41,2.83v18.33c.57,.21,1.57,.31,2.98,.31,3.98,0,6.42-.23,7.33-.69,.55-.28,1.08-.72,1.57-1.33,.5-.61,.8-1.21,.91-1.81h.83Z"></path>
        <path d="M321.86,114.56c-.4,2.3-1.16,4.09-2.29,5.35-2.54-.23-6.85-.35-12.93-.35-.02,0-1.49,.03-4.41,.1v-.83c1.52-.16,2.37-.3,2.55-.41,.46-.28,.7-1.04,.7-2.28v-16.6c0-1.4-.12-2.27-.36-2.59-.29-.41-1.07-.67-2.35-.76v-.69c1.39,.07,2.8,.1,4.21,.1,1.55,0,3.06-.03,4.54-.1v.86c-1.63,.12-2.59,.3-2.87,.55-.28,.25-.41,1.2-.41,2.83v18.33c.57,.21,1.57,.31,2.98,.31,3.98,0,6.42-.23,7.33-.69,.55-.28,1.08-.72,1.57-1.33,.5-.61,.8-1.21,.91-1.81h.83Z"></path>
        <path d="M334.35,119.67c-2.12-.11-3.79-.17-5-.17s-2.99,.06-5.2,.17v-.86c1.92-.09,2.99-.23,3.22-.41,.38-.28,.56-1.29,.56-3.04v-15.78c0-1.57-.18-2.49-.53-2.76-.24-.21-1.22-.36-2.92-.45v-.86c1.52,.07,3.04,.1,4.54,.1,1.68,0,3.35-.03,5.01-.1v.86c-1.72,.12-2.71,.28-2.95,.48-.33,.28-.5,1.23-.5,2.87v15.67c0,1.7,.2,2.7,.6,3,.26,.18,1.32,.32,3.18,.41v.86Z"></path>
        <path d="M363.59,96.3c-1.41,.07-2.28,.21-2.59,.41-.49,.34-.73,1.17-.73,2.49v18.75c0,1.17,.01,2.05,.03,2.62l-.76,.21c-.31-.55-1.02-1.5-2.12-2.83l-10.41-12.39c-1.15-1.38-2.86-3.45-5.14-6.21h-.07l-.1-.1c-.02,.76-.09,3.59-.2,8.49-.09,3.45-.13,6.28-.13,8.49,0,.9,.11,1.5,.33,1.81,.22,.31,.6,.49,1.13,.54,.62,.05,1.24,.08,1.86,.1v1c-2.03-.09-3.55-.14-4.54-.14-.49,0-1.13,.02-1.92,.07-1.02,.05-1.67,.07-1.96,.07v-1l2.05-.07c.57-.05,.98-.23,1.21-.55,.23-.32,.36-.99,.38-2,.22-11.6,.33-17.13,.33-16.61,0-1.45-.24-2.44-.73-2.97-.2-.21-.63-.35-1.29-.41-.49-.05-.97-.08-1.46-.1v-.97c2.39,.07,3.57,.1,3.55,.1,.75,0,1.47-.03,2.15-.1,3.2,4.56,5.92,8.26,8.15,11.12,1.81,2.21,4.48,5.54,8.02,9.98h.17v-16.88c0-1.36-.22-2.16-.66-2.42-.13-.07-.96-.17-2.49-.31v-.97l4.01,.1c.29,0,1.59-.09,3.91-.28v.97Z"></path>
        <path d="M389.57,111.73c-.51,.12-1,.24-1.49,.38-.66,.21-.99,.51-.99,.9l.03,4.32h1.33l.03,.66c-2.56,1.52-5.79,2.28-9.68,2.28s-6.99-1.07-9.38-3.21c-2.5-2.26-3.75-5.37-3.75-9.36s1.35-6.9,4.04-9.25c2.56-2.23,5.7-3.35,9.41-3.35,1.7,0,3.44,.24,5.2,.72,.57,.18,1.44,.41,2.59,.69-.51,1.84-.76,3.6-.76,5.28h-.86c-.04-1.54-.82-2.87-2.32-3.97-1.37-.97-2.83-1.45-4.37-1.45-2.98,0-5.36,1.05-7.13,3.14-1.72,2-2.59,4.57-2.59,7.7,0,3.54,.96,6.37,2.88,8.49,1.97,2.19,4.64,3.28,8.02,3.28,2.1,0,3.44-.32,4.01-.97,.26-.3,.4-.86,.4-1.69v-2.8c0-.51-.08-.85-.23-1.02-.15-.17-.49-.3-.99-.4-.6-.05-1.48-.11-2.65-.21v-.9c1.59,.07,3.18,.1,4.77,.1,.04,0,1.49-.03,4.34-.1l.13,.72Z"></path>
        <path d="M426.23,119.67c-3.18-.07-4.76-.1-4.74-.1-.46,0-1.16,.02-2.1,.05-.94,.03-1.65,.05-2.14,.05v-1.04c.57-.05,1.16-.08,1.76-.1,.88-.11,1.33-.33,1.33-.66,0-.41-.32-1.44-.96-3.07-.42-1.06-.85-2.12-1.29-3.18h-9.68c-1.39,3.29-2.09,5.29-2.09,6.01,0,.44,.4,.73,1.19,.86,.53,.05,1.07,.09,1.62,.14v1.04h-7.62v-1.04c.97-.09,1.59-.2,1.86-.31,.44-.23,.84-.75,1.19-1.55l5.87-13.91c.26-.64,.57-1.51,.93-2.59,.42-1.33,.63-2.23,.63-2.69,0-.83-.23-1.27-.7-1.31v-.69h3.41c.07,1.34,1.5,5.35,4.31,12.05,2.83,6.79,4.62,10.36,5.37,10.7,.26,.12,.88,.22,1.86,.31v1.04Zm-8.75-9.39l-4.14-10.46c-.99,2.3-2.45,5.79-4.37,10.46h8.52Z"></path>
        <path d="M456.22,96.3c-1.41,.07-2.28,.21-2.59,.41-.49,.34-.73,1.17-.73,2.49v18.75c0,1.17,.01,2.05,.03,2.62l-.76,.21c-.31-.55-1.02-1.5-2.12-2.83l-10.41-12.39c-1.15-1.38-2.86-3.45-5.14-6.21h-.07l-.1-.1c-.02,.76-.09,3.59-.2,8.49-.09,3.45-.13,6.28-.13,8.49,0,.9,.11,1.5,.33,1.81,.22,.31,.6,.49,1.13,.54,.62,.05,1.24,.08,1.86,.1v1c-2.03-.09-3.55-.14-4.54-.14-.49,0-1.13,.02-1.92,.07-1.02,.05-1.67,.07-1.96,.07v-1l2.05-.07c.57-.05,.98-.23,1.21-.55,.23-.32,.36-.99,.38-2,.22-11.6,.33-17.13,.33-16.61,0-1.45-.24-2.44-.73-2.97-.2-.21-.63-.35-1.29-.41-.49-.05-.97-.08-1.46-.1v-.97c2.39,.07,3.57,.1,3.55,.1,.75,0,1.47-.03,2.15-.1,3.2,4.56,5.92,8.26,8.15,11.12,1.81,2.21,4.48,5.54,8.02,9.98h.17v-16.88c0-1.36-.22-2.16-.66-2.42-.13-.07-.96-.17-2.49-.31v-.97l4.01,.1c.29,0,1.59-.09,3.91-.28v.97Z"></path>
        <path d="M482.51,107.33c0,4.27-1.36,7.46-4.08,9.55-2.39,1.86-5.67,2.79-9.84,2.79-.46,0-1.17-.02-2.12-.05-.95-.03-1.67-.05-2.15-.05-1.94,0-3.9,.03-5.87,.1v-.79c.55-.07,1.37-.18,2.45-.35,.53-.09,.8-.89,.8-2.38v-16.6c0-1.38-.12-2.24-.36-2.59-.31-.41-1.09-.67-2.35-.76v-.69c1.28,.07,3.2,.1,5.77,.1,.57,0,1.42-.02,2.54-.05,1.11-.03,1.95-.05,2.5-.05,.71,0,1.25,.01,1.62,.03,3.18,.18,5.83,1.37,7.94,3.57,2.11,2.19,3.16,4.94,3.16,8.22Zm-3.21,.15c0-3.18-1.02-5.76-3.07-7.77-2.04-2-4.61-3-7.71-3h.03c-1.77,0-3.17,.1-4.21,.31v20.99c.73,.21,2.1,.31,4.11,.31,3.47,0,6.14-.91,8.02-2.74,1.88-1.83,2.82-4.53,2.82-8.1Z"></path>
        <path d="M513.36,101.96c0,2.21-.82,3.91-2.45,5.11-1.41,1.06-3.23,1.59-5.44,1.59-.64,0-1.28-.07-1.92-.21l-.26-1.04c.75,.21,1.4,.31,1.96,.31,1.46,0,2.73-.45,3.83-1.36,1.09-.91,1.64-2.1,1.64-3.57,0-1.82-.57-3.3-1.72-4.44-1.15-1.14-2.6-1.71-4.34-1.71-1.15,0-2.38,.15-3.68,.45v18.02c0,1.45,.09,2.39,.26,2.83,.18,.44,.59,.69,1.23,.76,.99,.02,1.98,.06,2.95,.1v.86c-3.98-.07-5.95-.1-5.93-.1l-4.28,.1v-.86c1.74-.18,2.71-.37,2.88-.55,.27-.28,.4-1.32,.4-3.14v-15.95c0-1.31-.24-2.11-.73-2.38-.2-.14-1.04-.28-2.52-.41v-.86c3.78,.07,5.68,.1,5.7,.1,.62,0,1.57-.02,2.85-.05,1.28-.03,2.24-.05,2.88-.05,1.68,0,3.22,.64,4.61,1.93,1.39,1.29,2.09,2.8,2.09,4.52Z"></path>
        <path d="M530.7,112.83c0,4.67-2.76,7.01-8.29,7.01-1.92,0-4.11-.85-6.56-2.55,.02-.78-.07-1.71-.27-2.8-.15-.92-.32-1.84-.5-2.76h.89c.15,1.68,.92,3.21,2.29,4.59,1.37,1.38,2.77,2.07,4.21,2.07,1.66,0,2.97-.38,3.94-1.14,1.1-.85,1.66-2.11,1.66-3.76,0-2.62-1.96-4.33-5.87-5.11-1.77-.35-3.28-1.01-4.54-2-1.57-1.22-2.35-2.66-2.35-4.32,0-2.37,.8-4.16,2.39-5.39,1.39-1.06,3.27-1.59,5.63-1.59,.79,0,1.79,.24,3,.71,1.2,.47,2.13,.72,2.77,.74-.29,1.63-.43,3.33-.43,5.07h-.89c-.04-1.29-.6-2.49-1.67-3.59-1.07-1.1-2.23-1.66-3.46-1.66-1.46,0-2.64,.46-3.53,1.38-.89,.92-1.34,2.14-1.34,3.66,0,2.35,1.78,3.86,5.34,4.52,5.06,.94,7.59,3.24,7.59,6.9Z"></path>
        <path d="M554.33,96.37c-1.33,.05-2.28,.58-2.85,1.59l-5.87,10.63c-.35,1.01-.53,1.74-.53,2.17v5.42c0,.92,.17,1.6,.5,2.04,.22,.28,1.37,.47,3.45,.59v.86c-2.81-.11-4.51-.17-5.1-.17-2.19,0-4.05,.11-5.6,.34v-.86c1.52-.11,2.47-.26,2.85-.45,.84-.39,1.26-1.21,1.26-2.45v-5.52c0-1.36-1.52-4.8-4.57-10.32-.57-1.04-1.17-1.88-1.79-2.52-.53-.74-1.71-1.19-3.55-1.35v-.86c3.12,.07,4.68,.1,4.71,.1,.46,0,1.15-.02,2.07-.05,.92-.03,1.6-.05,2.04-.05v.86c-1.55,.12-2.32,.38-2.32,.79,0,.09,.02,.18,.07,.28,1.13,2.37,2.86,5.88,5.2,10.53,.15-.25,1.96-3.75,5.4-10.49,.04-.07,.07-.14,.07-.21,0-.28-.4-.49-1.19-.66l-1.72-.21v-.9c2.52,.07,3.77,.1,3.75,.1,.38,0,1-.02,1.87-.05,.87-.03,1.5-.05,1.87-.05v.86Z"></path>
        <path d="M578.65,116.39l-1.26,2.04c-2.21,1.22-4.64,1.83-7.29,1.83-3.8,0-6.91-1.08-9.31-3.24-2.52-2.26-3.78-5.34-3.78-9.25s1.34-7.01,4.01-9.36c2.5-2.21,5.64-3.31,9.45-3.31,1.68,0,3.42,.24,5.24,.72,.31,.12,.78,.26,1.42,.45,.38,.09,.75,.17,1.13,.24-.51,1.84-.76,3.6-.76,5.28h-.86c-.04-1.54-.83-2.85-2.35-3.94-1.37-.99-2.82-1.48-4.34-1.48-2.98,0-5.37,1.07-7.16,3.21-1.7,2.05-2.55,4.65-2.55,7.8,0,3.36,1.02,6.06,3.07,8.11,2.04,2.05,4.69,3.07,7.94,3.07,1.3,0,2.57-.22,3.81-.66,1.41-.48,2.49-1.17,3.22-2.07l.4,.55Z"></path>
        <path d="M606.56,119.67c-2.12-.11-3.79-.17-5-.17s-2.8,.06-4.87,.17v-.86c1.77-.09,2.81-.27,3.13-.54s.48-1.21,.48-2.85v-7.77c-.49-.05-1.23-.07-2.22-.07h-9.55c-.97,0-1.69,.02-2.15,.07v8.18c0,1.4,.24,2.26,.73,2.55,.26,.18,1.23,.32,2.88,.41v.86c-2.08-.11-3.71-.17-4.9-.17s-2.87,.06-4.97,.17v-.86c1.86-.09,2.88-.21,3.08-.35,.46-.25,.7-1.16,.7-2.73v-16.12c0-1.59-.18-2.52-.53-2.8-.24-.18-1.22-.33-2.92-.45v-.86c1.63,.07,3.25,.1,4.84,.1,1.46,0,2.92-.03,4.37-.1v.86c-1.61,.12-2.54,.26-2.78,.45-.33,.28-.5,1.17-.5,2.69v6.63c.97,.05,1.7,.07,2.19,.07h9.45c1.02,0,1.78-.02,2.29-.07v-6.35c0-1.63-.14-2.6-.43-2.9-.26-.23-1.22-.4-2.85-.52v-.86c1.44,.07,2.86,.1,4.28,.1,1.68,0,3.33-.03,4.94-.1v.86c-1.77,.12-2.77,.28-3.02,.48-.29,.28-.43,1.25-.43,2.93v15.64c0,1.7,.19,2.69,.56,2.97,.24,.18,1.31,.32,3.22,.41v.86Z"></path>
        <path d="M632.68,106.76c0,3.75-1.14,6.92-3.41,9.49-2.36,2.67-5.33,4-8.88,4s-6.11-1.22-8.19-3.66c-1.99-2.35-2.98-5.29-2.98-8.84s1.08-6.71,3.25-9.1c2.17-2.38,5-3.57,8.52-3.57s6.4,1.02,8.52,3.07c2.12,2.05,3.18,4.91,3.18,8.6Zm-3.08,1c0-3.31-.68-5.99-2.06-8.04-1.57-2.35-3.88-3.52-6.93-3.52-2.78,0-4.9,1.07-6.36,3.21-1.3,1.89-1.96,4.33-1.96,7.32,0,3.29,.73,6.06,2.19,8.32,1.68,2.62,4.01,3.94,6.99,3.94,2.78,0,4.89-1.2,6.33-3.59,1.19-2,1.79-4.54,1.79-7.63Z"></path>
        <path d="M654.85,114.56c-.4,2.3-1.16,4.09-2.29,5.35-2.54-.23-6.85-.35-12.93-.35-.02,0-1.49,.03-4.41,.1v-.83c1.52-.16,2.37-.3,2.55-.41,.46-.28,.7-1.04,.7-2.28v-16.6c0-1.4-.12-2.27-.36-2.59-.29-.41-1.07-.67-2.35-.76v-.69c1.39,.07,2.8,.1,4.21,.1,1.55,0,3.06-.03,4.54-.1v.86c-1.63,.12-2.59,.3-2.87,.55-.28,.25-.41,1.2-.41,2.83v18.33c.57,.21,1.57,.31,2.98,.31,3.98,0,6.42-.23,7.33-.69,.55-.28,1.08-.72,1.57-1.33,.5-.61,.8-1.21,.91-1.81h.83Z"></path>
        <path d="M680.67,106.76c0,3.75-1.14,6.92-3.41,9.49-2.36,2.67-5.33,4-8.88,4s-6.11-1.22-8.19-3.66c-1.99-2.35-2.98-5.29-2.98-8.84s1.08-6.71,3.25-9.1c2.17-2.38,5-3.57,8.52-3.57s6.4,1.02,8.52,3.07c2.12,2.05,3.18,4.91,3.18,8.6Zm-3.08,1c0-3.31-.68-5.99-2.06-8.04-1.57-2.35-3.88-3.52-6.93-3.52-2.78,0-4.9,1.07-6.36,3.21-1.3,1.89-1.96,4.33-1.96,7.32,0,3.29,.73,6.06,2.19,8.32,1.68,2.62,4.01,3.94,6.99,3.94,2.78,0,4.89-1.2,6.33-3.59,1.19-2,1.79-4.54,1.79-7.63Z"></path>
        <path d="M707.25,111.73c-.51,.12-1,.24-1.49,.38-.66,.21-.99,.51-.99,.9l.03,4.32h1.33l.03,.66c-2.56,1.52-5.79,2.28-9.68,2.28s-6.99-1.07-9.38-3.21c-2.5-2.26-3.75-5.37-3.75-9.36s1.35-6.9,4.04-9.25c2.56-2.23,5.7-3.35,9.41-3.35,1.7,0,3.44,.24,5.2,.72,.57,.18,1.44,.41,2.59,.69-.51,1.84-.76,3.6-.76,5.28h-.86c-.04-1.54-.82-2.87-2.32-3.97-1.37-.97-2.83-1.45-4.37-1.45-2.98,0-5.36,1.05-7.13,3.14-1.72,2-2.59,4.57-2.59,7.7,0,3.54,.96,6.37,2.88,8.49,1.97,2.19,4.64,3.28,8.02,3.28,2.1,0,3.44-.32,4.01-.97,.26-.3,.4-.86,.4-1.69v-2.8c0-.51-.08-.85-.23-1.02-.15-.17-.49-.3-.99-.4-.6-.05-1.48-.11-2.65-.21v-.9c1.59,.07,3.18,.1,4.77,.1,.04,0,1.49-.03,4.34-.1l.13,.72Z"></path>
        <path d="M731.05,96.37c-1.33,.05-2.28,.58-2.85,1.59l-5.87,10.63c-.35,1.01-.53,1.74-.53,2.17v5.42c0,.92,.17,1.6,.5,2.04,.22,.28,1.37,.47,3.45,.59v.86c-2.81-.11-4.51-.17-5.1-.17-2.19,0-4.05,.11-5.6,.34v-.86c1.52-.11,2.47-.26,2.85-.45,.84-.39,1.26-1.21,1.26-2.45v-5.52c0-1.36-1.52-4.8-4.57-10.32-.57-1.04-1.17-1.88-1.79-2.52-.53-.74-1.71-1.19-3.55-1.35v-.86c3.12,.07,4.68,.1,4.71,.1,.46,0,1.15-.02,2.07-.05,.92-.03,1.6-.05,2.04-.05v.86c-1.55,.12-2.32,.38-2.32,.79,0,.09,.02,.18,.07,.28,1.13,2.37,2.86,5.88,5.2,10.53,.15-.25,1.96-3.75,5.4-10.49,.04-.07,.07-.14,.07-.21,0-.28-.4-.49-1.19-.66l-1.72-.21v-.9c2.52,.07,3.77,.1,3.75,.1,.38,0,1-.02,1.87-.05,.87-.03,1.5-.05,1.87-.05v.86Z"></path>
      </g>
    </g>
  </g>
</svg>
