<?xml version="1.0" encoding="UTF-8"?>
<!-- Generated by IcoMoon.io -->
<svg xmlns="http://www.w3.org/2000/svg" version="1.1" width="94" height="32" viewBox="0 0 94 32">
  <title>NJGraphique</title>
  <path fill="#ef7925" d="M32.782 19.417v2.037c-0.32 0.118-0.629 0.177-0.921 0.177-0.716 0-1.324-0.271-1.821-0.813s-0.744-1.206-0.744-1.988c0-0.848 0.299-1.564 0.897-2.145s1.331-0.872 2.204-0.872c0.462 0 0.907 0.094 1.331 0.278 0.424 0.188 0.758 0.434 0.998 0.747 0.403 0.518 0.605 1.272 0.605 2.256v1.95c0 1.057-0.299 1.915-0.9 2.576s-1.38 0.987-2.343 0.987c-0.292 0-0.664-0.073-1.112-0.219v-2.020c0.288 0.16 0.581 0.236 0.879 0.236 0.4 0 0.709-0.132 0.928-0.396s0.327-0.64 0.327-1.133v-2.228c0-0.622-0.25-0.932-0.754-0.932-0.215 0-0.4 0.083-0.56 0.247s-0.24 0.355-0.24 0.567c0 0.226 0.076 0.414 0.229 0.563s0.341 0.226 0.567 0.226c0.149 0 0.295-0.035 0.434-0.108z"></path>
  <path fill="#ef7925" d="M41.104 15.875v2.378c-0.153-0.087-0.295-0.132-0.421-0.132-0.403 0-0.605 0.309-0.605 0.928v2.809h-2.221v-3.236c0-0.855 0.233-1.536 0.702-2.047 0.466-0.508 1.091-0.765 1.87-0.765 0.174 0 0.4 0.021 0.678 0.066z"></path>
  <path fill="#ef7925" d="M46.265 19.636v2.298c-0.181 0.031-0.348 0.049-0.501 0.049-0.89 0-1.634-0.292-2.228-0.879s-0.89-1.321-0.89-2.204 0.299-1.589 0.9-2.186c0.601-0.598 1.331-0.897 2.19-0.897 0.959 0 1.714 0.282 2.266 0.841s0.827 1.324 0.827 2.294v2.906h-2.221v-2.746c0-0.313-0.076-0.563-0.229-0.747-0.153-0.188-0.358-0.278-0.615-0.278-0.233 0-0.434 0.087-0.605 0.257s-0.254 0.372-0.254 0.605c0 0.247 0.076 0.448 0.233 0.605s0.351 0.236 0.587 0.236c0.195 0 0.375-0.052 0.539-0.153z"></path>
  <path fill="#ef7925" d="M53.433 24.050h-2.221v-4.943c0-0.907 0.236-1.644 0.713-2.214 0.275-0.33 0.622-0.591 1.043-0.786s0.855-0.292 1.297-0.292c0.883 0 1.627 0.295 2.235 0.89s0.911 1.324 0.911 2.186-0.302 1.564-0.904 2.172c-0.601 0.608-1.314 0.914-2.138 0.914-0.136 0-0.334-0.014-0.594-0.042v-2.447c0.181 0.146 0.365 0.219 0.546 0.219 0.229 0 0.428-0.083 0.591-0.254s0.247-0.372 0.247-0.605-0.087-0.434-0.254-0.598c-0.17-0.163-0.375-0.247-0.612-0.247-0.57 0-0.855 0.393-0.855 1.182v4.859z"></path>
  <path fill="#ef7925" d="M61.821 13.748v2.478c0.375-0.275 0.751-0.41 1.13-0.41 0.57 0 1.022 0.205 1.356 0.619s0.501 0.97 0.501 1.668v3.754h-2.221v-3.132c0-0.254-0.028-0.424-0.080-0.511s-0.156-0.132-0.313-0.132c-0.25 0-0.375 0.184-0.375 0.553v3.219h-2.221v-8.11h2.221z"></path>
  <path fill="#ef7925" d="M69.541 15.934v5.923h-2.221v-5.923h2.221zM68.435 13.292c0.302 0 0.563 0.104 0.782 0.316s0.33 0.462 0.33 0.751c0 0.309-0.104 0.563-0.313 0.761s-0.473 0.295-0.799 0.295-0.591-0.101-0.799-0.295c-0.209-0.198-0.313-0.452-0.313-0.761 0-0.288 0.111-0.539 0.33-0.751s0.48-0.316 0.782-0.316z"></path>
  <path fill="#ef7925" d="M75.714 24.050v-4.859c0-0.789-0.288-1.182-0.862-1.182-0.233 0-0.434 0.083-0.605 0.247s-0.257 0.365-0.257 0.598 0.083 0.434 0.247 0.605c0.163 0.17 0.362 0.254 0.591 0.254 0.177 0 0.362-0.073 0.546-0.219v2.447c-0.261 0.028-0.459 0.042-0.594 0.042-0.824 0-1.536-0.306-2.138-0.914s-0.904-1.335-0.904-2.172 0.302-1.592 0.907-2.186 1.349-0.89 2.235-0.89c0.445 0 0.876 0.097 1.297 0.292s0.768 0.455 1.043 0.786c0.476 0.57 0.713 1.31 0.713 2.214v4.943h-2.221z"></path>
  <path fill="#ef7925" d="M80.32 16.017h2.221v3.344c0 0.337 0.139 0.504 0.421 0.504s0.417-0.167 0.417-0.504v-3.344h2.221v3.302c0 0.768-0.254 1.418-0.765 1.947s-1.137 0.793-1.877 0.793c-0.845 0-1.522-0.306-2.037-0.921-0.4-0.48-0.601-1.144-0.601-1.995v-3.125z"></path>
  <path fill="#ef7925" d="M93.935 19.257h-3.368c-0.052-0.17-0.076-0.327-0.076-0.469 0-0.198 0.035-0.393 0.108-0.581h1.13c-0.080-0.438-0.327-0.66-0.744-0.66-0.278 0-0.504 0.118-0.678 0.355s-0.261 0.539-0.261 0.907 0.083 0.695 0.254 0.932c0.167 0.236 0.389 0.358 0.664 0.358 0.222 0 0.434-0.111 0.643-0.334l1.265 1.523c-0.591 0.462-1.244 0.695-1.967 0.695-0.879 0-1.616-0.295-2.218-0.886-0.598-0.591-0.897-1.321-0.897-2.193s0.302-1.599 0.907-2.197c0.605-0.598 1.345-0.897 2.225-0.897s1.582 0.292 2.166 0.876 0.876 1.303 0.876 2.159c0 0.087-0.007 0.226-0.024 0.417z"></path>
  <path fill="#ef7925" d="M0 22.1v-13.998c0-2.454 0.733-4.418 2.204-5.892s3.424-2.211 5.867-2.211 4.293 0.716 5.586 2.148c1.29 1.432 1.936 3.49 1.936 6.177v13.775h-6.413v-13.775c0-1.317-0.469-1.974-1.404-1.974s-1.359 0.657-1.359 1.974v13.775h-6.417z"></path>
  <path fill="#1d1d1b" d="M18.555 9.9v13.775c0 1.317-0.452 1.974-1.359 1.974s-1.404-0.657-1.404-1.974v-0.059h-6.413v0.059c0 2.687 0.647 4.745 1.936 6.177s3.153 2.148 5.582 2.148 4.401-0.737 5.867-2.211c1.47-1.474 2.204-3.438 2.204-5.892v-13.998h-6.413z"></path>
</svg>
