<?xml version="1.0" encoding="UTF-8"?>
<!-- Generated by IcoMoon.io -->
<svg xmlns="http://www.w3.org/2000/svg" version="1.1" viewBox="0 0 287 32">
  <title>ukvans</title>
  <path fill="#737373" d="M30.91 5.473c-0.15-1.083-0.207-2.273-1.625-2.48-2.466-0.356-4.832-0.029-7.034 1.19-2.494 1.375-4.633 3.271-6.82 5.082-1.254 1.041-1.233 2.758-0.128 3.955 0.969 1.055 2.152 1.418 3.514 1.433 3.457 0.036 6.721-0.891 9.935-2.045 0.955-0.342 1.461-1.14 1.661-2.081 0.278-1.304 0.563-2.616 0.506-4.148 0-0.178 0.043-0.549-0.007-0.905zM29.833 8.887c-0.135 1.981-1.098 3.043-3.008 3.449l-8.118 1.14c-0.606 0-1.197-0.086-1.76-0.278-1.368-0.456-1.996-1.96-0.976-2.951 3.186-3.107 6.414-6.25 11.204-6.507 2.566-0.143 2.851 0.164 2.844 2.993 0.021 0.634-0.135 1.39-0.185 2.152z"></path>
  <path fill="#737373" d="M13.541 26.142c-0.028 1.625-1.012 2.694-2.466 2.68-1.511-0.014-2.63-1.283-2.559-2.894 0.064-1.39 1.212-2.487 2.587-2.48 1.447 0.007 2.466 1.14 2.437 2.694zM11.054 27.888c0.912-0.007 1.668-0.827 1.689-1.839 0.021-0.905-0.741-1.653-1.689-1.661-0.962-0.007-1.604 0.606-1.625 1.539-0.021 1.212 0.606 1.967 1.625 1.96z"></path>
  <path fill="#737373" d="M17.254 25.792c-0.314-4.298-4.29-7.041-8.167-5.716-2.395 0.82-4.319 3.535-4.155 6.208 0.029 0.442 0.15 1.033-0.613 1.069-0.584 0.029-1.133 0.043-1.304-0.706-0.321-1.418-0.691-2.829-0.962-4.262-0.185-0.976 0.107-1.86 0.919-2.48 0.428-0.328 0.656-0.741 0.442-1.261-0.392-0.976 0.036-1.639 0.763-2.195 2.452-1.889 5.153-3.35 7.797-4.903 0.62-0.363 1.326-0.691 1.76-1.233 1.981-2.466 4.561-4.148 7.12-5.851 1.604-1.069 3.278-2.138 5.238-2.174 4.005-0.071 8.004-0.050 12.009-0.043v-1.069c-3.357-0.050-6.714 0.028-10.070 0.043-2.68 0.014-5.010 0.777-7.205 2.159-1.454 0.912-2.794 2.010-4.226 2.951-1.817 1.19-2.936 3.193-4.861 4.255-1.397 0.77-2.78 1.582-4.191 2.331-1.347 0.713-2.452 1.782-3.742 2.559-1.946 1.176-1.062 3.692-2.459 5.146-0.492 0.513-0.306 1.418-0.192 2.131 0.192 1.155 0.463 2.295 0.741 3.435 0.52 2.138 1.269 2.566 3.414 2.003 0.078-0.021 0.157-0.043 0.221-0.086 0.485-0.328 0.706-0.021 0.919 0.371 0.363 0.677 0.763 1.311 1.375 1.803 3 2.416 7.17 0.748 8.11-2.423 0.1-0.734 0.192-1.475 0.292-2.209 0.036 0 0.078 0 0.114 0.007 0 0.734 0 1.475 0 2.209 0.335 0.477 0.834 0.406 1.304 0.399 1.825-0.029 3.656-0.086 5.474-0.114 6.122-0.093 12.244-0.036 18.366-0.043 0-0.406 0-0.812 0-1.219-7.683 0.021-15.373 0.021-23.056 0.071-0.862 0.007-1.105-0.249-1.176-1.162zM10.947 30.525c-2.388-0.086-4.112-2.031-4.098-4.618 0.014-2.288 1.981-4.191 4.276-4.155 2.487 0.043 4.141 1.874 4.084 4.518-0.057 2.473-1.924 4.34-4.262 4.255z"></path>
  <path fill="#737373" d="M39.041 1.155v15.294c0 4.576 1.753 6.899 4.868 6.899 3.193 0 4.953-2.209 4.953-6.899v-15.294h6.072v14.902c0 8.196-4.191 12.102-11.218 12.102-6.792-0.007-10.79-3.713-10.79-12.187v-14.824h6.115z"></path>
  <path fill="#737373" d="M60.201 1.155h6.029v11.745h0.121c0.599-1.026 1.24-1.974 1.839-2.915l6.108-8.83h7.469l-8.902 11.31 9.386 15.252h-7.106l-6.6-11.467-2.316 2.801v8.674h-6.029v-26.569z"></path>
  <path fill="#ce1419" d="M91.061 27.717l-8.624-26.569h6.671l3.271 11.232c0.919 3.15 1.76 6.186 2.395 9.5h0.121c0.677-3.193 1.518-6.343 2.437-9.379l3.435-11.353h6.471l-9.065 26.569h-7.113z"></path>
  <path fill="#ce1419" d="M114.224 20.896l-1.917 6.82h-6.307l8.225-26.569h7.982l8.346 26.569h-6.55l-2.074-6.82h-7.704zM121.051 16.406l-1.675-5.637c-0.478-1.575-0.955-3.549-1.354-5.124h-0.078c-0.399 1.575-0.798 3.585-1.24 5.124l-1.596 5.637h5.944z"></path>
  <path fill="#ce1419" d="M134.143 27.717v-26.562h7.106l5.588 9.735c1.596 2.801 3.193 6.108 4.39 9.108h0.121c-0.399-3.506-0.52-7.098-0.52-11.075v-7.768h5.588v26.569h-6.386l-5.751-10.249c-1.596-2.837-3.357-6.265-4.668-9.379l-0.121 0.043c0.157 3.506 0.242 7.255 0.242 11.588v8.004h-5.588z"></path>
  <path fill="#ce1419" d="M161.896 21.53c1.639 0.827 4.155 1.653 6.749 1.653 2.794 0 4.269-1.14 4.269-2.879 0-1.653-1.276-2.601-4.511-3.742-4.469-1.539-7.384-3.984-7.384-7.847 0-4.533 3.834-8.004 10.184-8.004 3.036 0 5.274 0.627 6.87 1.34l-1.354 4.846c-1.076-0.513-2.993-1.261-5.63-1.261s-3.913 1.183-3.913 2.559c0 1.696 1.518 2.445 4.989 3.742 4.754 1.732 6.984 4.176 6.984 7.925 0 4.454-3.471 8.239-10.861 8.239-3.072 0-6.108-0.791-7.626-1.618l1.233-4.953z"></path>
  <path fill="#737373" d="M193.033 27.717v-6.108h-11.496v-3.906l9.821-15.608h7.426v15.016h3.114v4.49h-3.114v6.108h-5.751zM193.033 17.112v-5.673c0-1.539 0.078-3.114 0.2-4.768h-0.157c-0.841 1.653-1.518 3.15-2.395 4.768l-3.471 5.595v0.078h5.823z"></path>
  <path fill="#ce1419" d="M205.413 1.155h6.108v21.523h10.698v5.046h-16.812v-26.569z"></path>
  <path fill="#ce1419" d="M241.825 16.485h-9.899v6.307h11.061v4.925h-17.169v-26.562h16.613v4.925h-10.498v5.516h9.899v4.889z"></path>
  <path fill="#ce1419" d="M247.334 21.53c1.639 0.827 4.155 1.653 6.749 1.653 2.794 0 4.269-1.14 4.269-2.879 0-1.653-1.276-2.601-4.511-3.742-4.469-1.539-7.384-3.984-7.384-7.847 0-4.533 3.834-8.004 10.184-8.004 3.036 0 5.274 0.627 6.87 1.34l-1.354 4.846c-1.076-0.513-2.993-1.261-5.63-1.261s-3.913 1.183-3.913 2.559c0 1.696 1.518 2.445 4.989 3.742 4.754 1.732 6.984 4.176 6.984 7.925 0 4.454-3.471 8.239-10.861 8.239-3.072 0-6.108-0.791-7.626-1.618l1.233-4.953z"></path>
  <path fill="#ce1419" d="M268.893 21.53c1.639 0.827 4.155 1.653 6.749 1.653 2.794 0 4.269-1.14 4.269-2.879 0-1.653-1.276-2.601-4.511-3.742-4.469-1.539-7.384-3.984-7.384-7.847 0-4.533 3.834-8.004 10.184-8.004 3.036 0 5.274 0.627 6.87 1.34l-1.354 4.846c-1.076-0.513-2.993-1.261-5.63-1.261s-3.913 1.183-3.913 2.559c0 1.696 1.518 2.445 4.989 3.742 4.754 1.732 6.984 4.176 6.984 7.925 0 4.454-3.471 8.239-10.861 8.239-3.072 0-6.108-0.791-7.626-1.618l1.233-4.953z"></path>
</svg>
