<?xml version="1.0" encoding="UTF-8" standalone="no"?>
<svg
   xmlns:dc="http://purl.org/dc/elements/1.1/"
   xmlns:cc="http://creativecommons.org/ns#"
   xmlns:rdf="http://www.w3.org/1999/02/22-rdf-syntax-ns#"
   xmlns:svg="http://www.w3.org/2000/svg"
   xmlns="http://www.w3.org/2000/svg"
   viewBox="0 0 328.32001 122.13333"
   height="122.13333"
   width="328.32001"
   xml:space="preserve"
   id="svg2"
   version="1.1"><metadata
     id="metadata8"><rdf:RDF><cc:Work
         rdf:about=""><dc:format>image/svg+xml</dc:format><dc:type
           rdf:resource="http://purl.org/dc/dcmitype/StillImage" /></cc:Work></rdf:RDF></metadata><defs
     id="defs6" /><g
     transform="matrix(1.3333333,0,0,-1.3333333,0,122.13333)"
     id="g10"><g
       transform="scale(0.1)"
       id="g12"><path
         id="path14"
         style="fill:#fff;fill-opacity:1;fill-rule:nonzero;stroke:none"
         d="m 382.891,911.813 v -13.11 c -7.047,-1.723 -12.528,-4.918 -16.465,-9.617 -3.938,-4.695 -7.289,-12.168 -10.067,-22.391 l -39.589,-147.554 5.437,-22.098 -27.469,0.961 c -4.695,0 -12.343,-0.313 -22.992,-0.961 l -44.711,145.633 -32.902,-125.145 5.121,-20.488 c -14.918,0.648 -23.531,0.961 -25.879,0.961 -4.25,0 -12.121,-0.313 -23.617,-0.961 L 97.0586,869.895 c -2.9961,9.796 -6.1289,16.73 -9.4375,20.8 -3.2891,4.051 -7.8086,6.711 -13.5547,8.008 v 13.11 c 12.5469,-0.852 27.1286,-1.278 43.7496,-1.278 15.969,0 31.606,0.426 46.95,1.278 v -13.11 c -10.223,-1.07 -15.344,-5.769 -15.344,-14.09 0,-5.125 1.387,-12.593 4.16,-22.41 l 32.902,-116.824 31.918,122.594 c -4.25,15.992 -6.375,29.769 -6.375,41.289 v 2.551 c 13.196,-0.629 22.567,-0.961 28.09,-0.961 6.399,0 14.809,0.332 25.231,0.961 -0.2,-10.872 2.125,-24.852 7.023,-41.918 l 36.414,-124.204 31.629,124.204 c 1.477,5.75 2.234,10.246 2.234,13.441 0,8.523 -5.968,13.644 -17.89,15.367 v 13.11 c 12.769,-0.629 22.68,-0.961 29.703,-0.961 7.223,0 16.707,0.332 28.43,0.961" /><path
         id="path16"
         style="fill:#fff;fill-opacity:1;fill-rule:nonzero;stroke:none"
         d="m 595.242,911.813 v -45.766 c -2.347,0.203 -5.547,0.316 -9.574,0.316 -3.621,0 -6.598,-0.113 -8.945,-0.316 -5.547,20.488 -21.071,30.734 -46.637,30.734 h -48.848 v -79.695 h 38.625 c 10.446,0 17.895,2.012 22.367,6.062 4.477,4.071 7.024,11.004 7.672,20.825 2.328,-0.227 4.879,-0.336 7.653,-0.336 2.547,0 5.008,0.109 7.355,0.336 v -67.864 c -2.347,0.204 -4.808,0.313 -7.355,0.313 -2.352,0 -4.899,-0.109 -7.653,-0.313 -0.871,9.395 -3.507,15.95 -7.984,19.684 -4.473,3.734 -12.031,5.594 -22.68,5.594 h -38 v -89.606 h 54.285 c 11.274,0 19.793,0.625 25.543,1.903 8.52,1.921 15.86,5.882 22.032,11.851 7.047,6.625 12.679,15.57 16.929,26.887 5.973,-2.145 11.61,-3.309 16.934,-3.512 l -10.535,-51.867 c -19.371,0.848 -67.192,1.297 -143.395,1.297 -24.918,0 -45.562,-0.449 -61.957,-1.297 v 13.129 c 11.922,0.199 19.102,1.766 21.563,4.652 2.437,2.864 3.668,11.364 3.668,25.43 v 128.344 c 0,14.093 -1.231,22.57 -3.668,25.453 -2.461,2.887 -9.641,4.429 -21.563,4.652 v 13.11 c 17.02,-0.852 39.5,-1.278 67.391,-1.278 50.461,0 92.711,0.426 126.777,1.278" /><path
         id="path18"
         style="fill:#fff;fill-opacity:1;fill-rule:nonzero;stroke:none"
         d="m 835.086,750.188 -9.91,-53.145 c -30.238,0.848 -71.641,1.297 -124.227,1.297 -22.793,0 -42.699,-0.449 -59.719,-1.297 v 13.129 c 11.922,0.199 19.102,1.766 21.563,4.652 2.437,2.864 3.668,11.364 3.668,25.43 v 128.344 c 0,14.093 -1.231,22.57 -3.668,25.453 -2.461,2.887 -9.641,4.429 -21.563,4.652 v 13.11 c 12.77,-0.852 30.329,-1.278 52.696,-1.278 22.344,0 39.926,0.426 52.695,1.278 v -13.11 c -11.918,-0.223 -19.121,-1.765 -21.558,-4.652 -2.461,-2.883 -3.668,-11.36 -3.668,-25.453 V 711.781 h 13.73 c 25.32,0 43.797,2.821 55.406,8.477 11.606,5.637 20.801,16.262 27.621,31.851 7.246,-1.296 12.883,-1.921 16.934,-1.921" /><path
         id="path20"
         style="fill:#fff;fill-opacity:1;fill-rule:nonzero;stroke:none"
         d="M 1044.91,750.188 1035,697.043 c -30.24,0.848 -71.641,1.297 -124.227,1.297 -22.789,0 -42.695,-0.449 -59.718,-1.297 v 13.129 c 11.922,0.199 19.101,1.766 21.562,4.652 2.438,2.864 3.668,11.364 3.668,25.43 v 128.344 c 0,14.093 -1.23,22.57 -3.668,25.453 -2.461,2.887 -9.64,4.429 -21.562,4.652 v 13.11 c 12.773,-0.852 30.332,-1.278 52.699,-1.278 22.344,0 39.926,0.426 52.695,1.278 v -13.11 c -11.922,-0.223 -19.125,-1.765 -21.562,-4.652 -2.461,-2.883 -3.668,-11.36 -3.668,-25.453 V 711.781 h 13.734 c 25.32,0 43.793,2.821 55.407,8.477 11.6,5.637 20.8,16.262 27.62,31.851 7.25,-1.296 12.88,-1.921 16.93,-1.921" /><path
         id="path22"
         style="fill:#fff;fill-opacity:1;fill-rule:nonzero;stroke:none"
         d="M 1141.05,868.598 V 740.254 c 0,-14.066 1.2,-22.566 3.66,-25.43 2.44,-2.886 9.64,-4.453 21.57,-4.652 v -13.129 c -12.78,0.848 -30.36,1.297 -52.7,1.297 -22.37,0 -39.93,-0.449 -52.7,-1.297 v 13.129 c 11.92,0.199 19.1,1.766 21.56,4.652 2.44,2.864 3.67,11.364 3.67,25.43 v 128.344 c 0,14.093 -1.23,22.57 -3.67,25.453 -2.46,2.887 -9.64,4.429 -21.56,4.652 v 13.11 c 12.77,-0.852 30.33,-1.278 52.7,-1.278 22.34,0 39.92,0.426 52.7,1.278 v -13.11 c -11.93,-0.223 -19.13,-1.765 -21.57,-4.652 -2.46,-2.883 -3.66,-11.36 -3.66,-25.453" /><path
         id="path24"
         style="fill:#fff;fill-opacity:1;fill-rule:nonzero;stroke:none"
         d="M 1263.01,911.813 1388.2,748.574 v 120.024 c 0,14.293 -1.23,22.902 -3.67,25.765 -2.43,2.887 -9.84,4.34 -22.18,4.34 h -3.52 v 13.11 c 14.7,-0.629 27.02,-0.961 37.04,-0.961 9.58,0 21.72,0.332 36.42,0.961 v -13.11 h -3.51 c -12.37,0 -19.75,-1.453 -22.21,-4.34 -2.44,-2.863 -3.67,-11.472 -3.67,-25.765 V 729.387 l 24.27,-32.344 -31.61,0.961 c -2.77,0 -14.38,-0.313 -34.82,-0.961 L 1233.65,863.477 V 740.254 c 0,-14.293 1.2,-22.883 3.66,-25.766 2.44,-2.886 9.84,-4.316 22.19,-4.316 h 3.51 v -13.129 c -14.67,0.648 -26.93,0.961 -36.72,0.961 -9.38,0 -21.61,-0.313 -36.73,-0.961 v 13.129 h 3.51 c 12.35,0 19.75,1.43 22.21,4.316 2.44,2.883 3.67,11.473 3.67,25.766 v 142.75 l -21.72,28.809 c 15.75,-0.629 26.62,-0.961 32.57,-0.961 3.62,0 14.69,0.332 33.21,0.961" /><path
         id="path26"
         style="fill:#fff;fill-opacity:1;fill-rule:nonzero;stroke:none"
         d="m 1656.16,889.422 v -35.227 c -6.2,0.223 -10.76,0.332 -13.73,0.332 -3.85,0 -7.99,-0.109 -12.46,-0.332 -7.87,33.078 -25.54,49.61 -53.01,49.61 -19.82,0 -35.36,-7.895 -46.64,-23.664 -12.14,-17.09 -18.2,-42.7 -18.2,-76.832 0,-35.407 7.24,-61.555 21.71,-78.418 10.43,-12.149 23,-18.231 37.69,-18.231 12.55,0 24.47,3.086 35.77,9.281 v 39.032 c 0,8.543 -1.28,14.047 -3.83,16.484 -2.55,2.461 -8.41,4.004 -17.58,4.652 v 13.129 c 12.8,-0.648 29.51,-0.961 50.15,-0.961 17.45,0 31.63,0.313 42.48,0.961 v -13.129 c -6.83,-1.722 -11.12,-3.847 -12.93,-6.398 -1.81,-2.57 -2.73,-7.27 -2.73,-14.09 v -36.816 c -28.09,-17.27 -58.76,-25.922 -91.98,-25.922 -36.39,0 -65.24,9.972 -86.53,29.926 -21.3,19.953 -31.94,46.996 -31.94,81.148 0,40.953 15.23,71.148 45.67,90.566 22.34,14.313 47.57,21.45 75.69,21.45 28.52,0 55.98,-8.86 82.4,-26.551" /><path
         id="path28"
         style="fill:#fff;fill-opacity:1;fill-rule:nonzero;stroke:none"
         d="m 1894.39,911.813 2.55,-51.848 c -2.55,0.422 -5.54,0.648 -8.94,0.648 -3.2,0 -5.75,-0.226 -7.65,-0.648 -7.05,24.535 -20.87,36.816 -41.54,36.816 h -14.67 V 740.254 c 0,-14.066 1.21,-22.566 3.67,-25.43 2.43,-2.886 9.61,-4.453 21.56,-4.652 v -13.129 c -12.8,0.848 -30.35,1.297 -52.7,1.297 -22.37,0 -39.92,-0.449 -52.7,-1.297 v 13.129 c 11.93,0.199 19.11,1.766 21.57,4.652 2.43,2.864 3.66,11.364 3.66,25.43 v 156.527 h -14.38 c -20.22,0 -34.26,-12.281 -42.14,-36.816 -1.92,0.422 -4.47,0.648 -7.67,0.648 -3.42,0 -6.28,-0.226 -8.63,-0.648 l 1.92,51.848 c 21.49,-0.852 56.95,-1.278 106.36,-1.278 40.23,0 70.14,0.426 89.73,1.278" /><path
         id="path30"
         style="fill:#fff;fill-opacity:1;fill-rule:nonzero;stroke:none"
         d="m 2021.17,903.805 c -19.17,0 -32.59,-8.41 -40.24,-25.274 -6.6,-14.519 -9.91,-36.707 -9.91,-66.566 0,-36.078 4.21,-62.629 12.62,-79.719 8.41,-17.062 21.56,-25.586 39.45,-25.586 20,0 33.73,9.281 41.18,27.848 5.97,14.715 8.95,36.367 8.95,64.953 0,69.562 -17.36,104.344 -52.05,104.344 z m 1.92,12.168 c 33.84,0 60.62,-9.977 80.3,-29.93 19.71,-19.949 29.55,-46.992 29.55,-81.125 0,-43.324 -15.32,-74.797 -45.99,-94.434 -18.32,-11.718 -39.59,-17.601 -63.86,-17.601 -34.08,0 -61.22,9.972 -81.44,29.926 -20.24,19.953 -30.35,46.679 -30.35,80.187 0,35.629 9.8,63.367 29.39,83.203 19.57,19.864 47.04,29.774 82.4,29.774" /><path
         id="path32"
         style="fill:#fff;fill-opacity:1;fill-rule:nonzero;stroke:none"
         d="M 2226.81,911.813 2352,748.574 v 120.024 c 0,14.293 -1.23,22.902 -3.67,25.765 -2.43,2.887 -9.84,4.34 -22.18,4.34 h -3.52 v 13.11 c 14.7,-0.629 27.02,-0.961 37.04,-0.961 9.58,0 21.72,0.332 36.42,0.961 v -13.11 h -3.51 c -12.37,0 -19.75,-1.453 -22.21,-4.34 -2.44,-2.863 -3.67,-11.472 -3.67,-25.765 V 729.387 l 24.27,-32.344 -31.61,0.961 c -2.77,0 -14.38,-0.313 -34.82,-0.961 L 2197.45,863.477 V 740.254 c 0,-14.293 1.2,-22.883 3.66,-25.766 2.44,-2.886 9.85,-4.316 22.19,-4.316 h 3.51 v -13.129 c -14.67,0.648 -26.93,0.961 -36.72,0.961 -9.38,0 -21.61,-0.313 -36.73,-0.961 v 13.129 h 3.51 c 12.35,0 19.75,1.43 22.21,4.316 2.44,2.883 3.67,11.473 3.67,25.766 v 142.75 l -21.72,28.809 c 15.75,-0.629 26.62,-0.961 32.57,-0.961 3.62,0 14.69,0.332 33.21,0.961" /><path
         id="path34"
         style="fill:#fff;fill-opacity:1;fill-rule:nonzero;stroke:none"
         d="m 198.785,240.031 c 57.731,0 94.477,30.254 94.477,76.949 v 1.309 c 0,49.324 -35.43,76.289 -95.129,76.289 H 80.6953 V 240.031 Z M 0,468.23 h 204.688 c 57.734,0 103.003,-17.101 132.527,-46.035 24.269,-24.988 38.055,-59.191 38.055,-99.297 v -1.32 C 375.27,245.949 329.996,200.57 265.703,182.16 L 389.699,7.89453 H 294.57 L 181.727,168.348 H 80.6953 V 7.89453 L 0,7.89453 V 468.23" /><path
         id="path36"
         style="fill:#fff;fill-opacity:1;fill-rule:nonzero;stroke:none"
         d="m 505.203,468.23 h 80.703 V 7.89453 H 505.203 V 468.23" /><path
         id="path38"
         style="fill:#fff;fill-opacity:1;fill-rule:nonzero;stroke:none"
         d="m 906.074,81.5469 c 96.436,0 159.426,65.1051 159.426,155.1951 v 1.321 c 0,90.093 -62.99,156.515 -159.426,156.515 H 815.535 V 81.5469 Z M 734.844,468.23 h 171.23 c 144.336,0 244.056,-99.308 244.056,-228.859 v -1.308 C 1150.13,108.512 1050.41,7.89453 906.074,7.89453 H 734.844 V 468.23" /><path
         id="path40"
         style="fill:#fff;fill-opacity:1;fill-rule:nonzero;stroke:none"
         d="m 1278.77,468.23 h 80.7 V 7.89453 h -80.7 V 468.23" /><path
         id="path42"
         style="fill:#fff;fill-opacity:1;fill-rule:nonzero;stroke:none"
         d="m 1508.4,468.23 h 74.79 L 1829.21,149.938 V 468.23 h 79.38 V 7.89453 h -67.57 L 1587.78,335.391 V 7.89453 H 1508.4 V 468.23" /><path
         id="path44"
         style="fill:#fff;fill-opacity:1;fill-rule:nonzero;stroke:none"
         d="m 2032.65,236.742 v 1.321 c 0,128.89 98.4,238.05 236.83,238.05 80.04,0 129.25,-22.355 176.48,-62.465 l -51.17,-61.156 c -35.43,30.242 -70.2,49.313 -128.59,49.313 -84.63,0 -148.93,-74.313 -148.93,-162.434 v -1.308 c 0,-94.7 62.33,-164.4028 156.14,-164.4028 43.31,0 82.67,13.8007 110.88,34.8518 v 86.144 h -117.43 v 70.375 h 195.51 V 71.6797 C 2417.09,32.8828 2352.15,0 2270.8,0 2127.11,0 2032.65,102.598 2032.65,236.742" /></g></g></svg>