<!-- Generated by IcoMoon.io -->
<svg version="1.1" xmlns="http://www.w3.org/2000/svg" width="134" height="32" viewBox="0 0 134 32">
<title>HorseTrials_logo</title>
<path fill="#fff" d="M5.633 15.989h123.858v0.975h-123.858v-0.975z"></path>
<path fill="#fff" d="M10.231 21.442v5.356h-0.559v-2.473h-3.359v2.473h-0.569v-5.356h0.569v2.387h3.359v-2.387h0.559z"></path>
<path fill="#fff" d="M12.882 26.486c-0.433-0.237-0.769-0.562-1.013-0.975s-0.363-0.878-0.363-1.392c0-0.514 0.122-0.979 0.363-1.392 0.244-0.413 0.58-0.738 1.013-0.975s0.914-0.356 1.446-0.356 1.011 0.117 1.437 0.352c0.426 0.235 0.763 0.559 1.008 0.975s0.368 0.882 0.368 1.396c0 0.514-0.122 0.981-0.368 1.396s-0.582 0.74-1.008 0.975c-0.426 0.235-0.907 0.352-1.437 0.352s-1.015-0.12-1.446-0.356zM15.477 26.051c0.343-0.192 0.611-0.456 0.805-0.796 0.194-0.338 0.291-0.717 0.291-1.137 0-0.417-0.097-0.796-0.291-1.137-0.194-0.338-0.463-0.605-0.805-0.796s-0.726-0.287-1.151-0.287c-0.424 0-0.81 0.095-1.155 0.287s-0.616 0.456-0.812 0.796-0.296 0.717-0.296 1.137c0 0.417 0.099 0.796 0.296 1.137s0.467 0.605 0.812 0.796c0.345 0.192 0.729 0.287 1.155 0.287s0.81-0.095 1.151-0.287z"></path>
<path fill="#fff" d="M22.080 26.798l-1.227-1.721c-0.138 0.016-0.282 0.023-0.429 0.023h-1.442v1.699h-0.569v-5.356h2.010c0.686 0 1.223 0.162 1.611 0.49s0.582 0.776 0.582 1.347c0 0.417-0.106 0.772-0.318 1.060s-0.514 0.496-0.909 0.623l1.311 1.836h-0.62zM21.629 24.264c0.282-0.235 0.422-0.564 0.422-0.988 0-0.433-0.14-0.767-0.422-0.999s-0.688-0.347-1.218-0.347h-1.426v2.687h1.426c0.53 0 0.936-0.117 1.218-0.352z"></path>
<path fill="#fff" d="M24.293 26.651c-0.365-0.126-0.648-0.296-0.848-0.505l0.223-0.435c0.194 0.194 0.453 0.35 0.774 0.472s0.654 0.18 0.997 0.18c0.481 0 0.841-0.088 1.081-0.264s0.361-0.404 0.361-0.686c0-0.214-0.065-0.386-0.196-0.512-0.131-0.129-0.291-0.226-0.478-0.296-0.189-0.070-0.453-0.144-0.79-0.226-0.404-0.102-0.726-0.201-0.966-0.296-0.241-0.095-0.447-0.239-0.618-0.433s-0.257-0.456-0.257-0.787c0-0.271 0.072-0.517 0.214-0.738s0.363-0.399 0.659-0.532c0.296-0.133 0.666-0.199 1.105-0.199 0.307 0 0.607 0.043 0.9 0.126s0.548 0.201 0.763 0.347l-0.192 0.451c-0.226-0.149-0.465-0.259-0.722-0.334-0.255-0.074-0.505-0.111-0.751-0.111-0.472 0-0.823 0.090-1.063 0.271-0.237 0.18-0.356 0.415-0.356 0.699 0 0.214 0.065 0.386 0.196 0.517s0.293 0.23 0.492 0.298c0.196 0.068 0.46 0.144 0.794 0.226 0.393 0.097 0.713 0.192 0.954 0.287 0.244 0.095 0.449 0.237 0.618 0.429s0.253 0.451 0.253 0.776c0 0.271-0.072 0.517-0.219 0.738s-0.37 0.397-0.67 0.528c-0.302 0.131-0.672 0.194-1.112 0.194-0.399 0.007-0.781-0.056-1.146-0.185z"></path>
<path fill="#fff" d="M32.472 26.308v0.49h-3.797v-5.356h3.682v0.49h-3.113v1.906h2.777v0.483h-2.777v1.99h3.228z"></path>
<path fill="#fff" d="M36.86 21.931h-1.886v-0.49h4.341v0.49h-1.886v4.866h-0.569v-4.866z"></path>
<path fill="#fff" d="M43.883 26.798l-1.227-1.721c-0.138 0.016-0.282 0.023-0.429 0.023h-1.442v1.699h-0.569v-5.356h2.010c0.686 0 1.223 0.162 1.611 0.49s0.582 0.776 0.582 1.347c0 0.417-0.106 0.772-0.318 1.060s-0.514 0.496-0.909 0.623l1.311 1.836h-0.62zM43.431 24.264c0.282-0.235 0.422-0.564 0.422-0.988 0-0.433-0.14-0.767-0.422-0.999s-0.688-0.347-1.218-0.347h-1.426v2.687h1.426c0.53 0 0.936-0.117 1.218-0.352z"></path>
<path fill="#fff" d="M45.762 21.442h0.569v5.356h-0.569v-5.356z"></path>
<path fill="#fff" d="M51.445 25.365h-2.992l-0.645 1.43h-0.591l2.455-5.356h0.559l2.455 5.356h-0.598l-0.643-1.43zM51.237 24.907l-1.288-2.876-1.288 2.876h2.576z"></path>
<path fill="#fff" d="M53.577 21.442h0.569v4.866h3.007v0.49h-3.574v-5.356z"></path>
<path fill="#fff" d="M58.373 26.651c-0.365-0.126-0.648-0.296-0.848-0.505l0.223-0.435c0.194 0.194 0.453 0.35 0.774 0.472s0.654 0.18 0.997 0.18c0.481 0 0.842-0.088 1.081-0.264s0.361-0.404 0.361-0.686c0-0.214-0.065-0.386-0.196-0.512-0.131-0.129-0.291-0.226-0.478-0.296-0.19-0.070-0.453-0.144-0.79-0.226-0.404-0.102-0.726-0.201-0.966-0.296-0.241-0.095-0.447-0.239-0.618-0.433s-0.257-0.456-0.257-0.787c0-0.271 0.072-0.517 0.214-0.738s0.363-0.399 0.659-0.532c0.296-0.133 0.666-0.199 1.105-0.199 0.307 0 0.607 0.043 0.9 0.126s0.548 0.201 0.763 0.347l-0.192 0.451c-0.226-0.149-0.465-0.259-0.722-0.334-0.255-0.074-0.505-0.111-0.751-0.111-0.472 0-0.823 0.090-1.063 0.271-0.237 0.18-0.356 0.415-0.356 0.699 0 0.214 0.065 0.386 0.196 0.517s0.293 0.23 0.492 0.298c0.196 0.068 0.46 0.144 0.794 0.226 0.393 0.097 0.713 0.192 0.954 0.287 0.244 0.095 0.449 0.237 0.618 0.429s0.253 0.451 0.253 0.776c0 0.271-0.072 0.517-0.219 0.738s-0.37 0.397-0.67 0.528c-0.302 0.131-0.672 0.194-1.112 0.194-0.397 0.007-0.781-0.056-1.146-0.185z"></path>
<path fill="#fff" d="M68.607 26.881l-0.745-0.765c-0.456 0.485-1.054 0.726-1.794 0.726-0.347 0-0.659-0.056-0.932-0.171s-0.487-0.275-0.641-0.483c-0.153-0.208-0.23-0.442-0.23-0.708 0-0.32 0.102-0.609 0.307-0.864s0.553-0.523 1.042-0.803c-0.255-0.266-0.433-0.492-0.53-0.677-0.097-0.187-0.147-0.384-0.147-0.593 0-0.341 0.122-0.618 0.368-0.826 0.246-0.21 0.575-0.314 0.99-0.314 0.384 0 0.688 0.095 0.911 0.282 0.226 0.189 0.338 0.449 0.338 0.781 0 0.266-0.090 0.503-0.268 0.715s-0.487 0.444-0.927 0.699l1.473 1.514c0.162-0.291 0.284-0.634 0.361-1.033l0.444 0.138c-0.097 0.478-0.255 0.891-0.476 1.232l0.767 0.787-0.314 0.363zM67.542 25.787l-1.618-1.66c-0.424 0.239-0.717 0.456-0.878 0.65s-0.241 0.411-0.241 0.65c0 0.291 0.12 0.523 0.356 0.699s0.55 0.264 0.939 0.264c0.593 0.002 1.074-0.199 1.442-0.602zM65.674 22.008c-0.151 0.133-0.226 0.309-0.226 0.528 0 0.158 0.041 0.309 0.122 0.451s0.244 0.336 0.483 0.582c0.388-0.226 0.656-0.415 0.805-0.573s0.223-0.332 0.223-0.521c0-0.203-0.070-0.365-0.208-0.485s-0.329-0.18-0.575-0.18c-0.266-0.002-0.474 0.065-0.625 0.199z"></path>
<path fill="#fff" d="M72.799 26.491c-0.426-0.235-0.763-0.559-1.004-0.975s-0.363-0.882-0.363-1.396c0-0.514 0.122-0.981 0.363-1.396s0.58-0.74 1.008-0.975 0.909-0.352 1.442-0.352c0.399 0 0.767 0.065 1.103 0.199 0.338 0.133 0.623 0.327 0.86 0.582l-0.361 0.359c-0.42-0.424-0.948-0.636-1.588-0.636-0.424 0-0.81 0.097-1.157 0.291s-0.62 0.46-0.817 0.796-0.296 0.715-0.296 1.133c0 0.417 0.099 0.796 0.296 1.133s0.469 0.602 0.817 0.796c0.347 0.194 0.733 0.291 1.157 0.291 0.645 0 1.173-0.214 1.588-0.643l0.361 0.359c-0.235 0.255-0.523 0.451-0.862 0.584-0.341 0.135-0.708 0.203-1.108 0.203-0.532 0-1.013-0.117-1.439-0.352z"></path>
<path fill="#fff" d="M78.213 26.486c-0.433-0.237-0.769-0.562-1.013-0.975s-0.363-0.878-0.363-1.392c0-0.514 0.122-0.979 0.363-1.392 0.244-0.413 0.58-0.738 1.013-0.975s0.914-0.356 1.446-0.356c0.532 0 1.011 0.117 1.437 0.352s0.763 0.559 1.008 0.975c0.246 0.415 0.368 0.882 0.368 1.396s-0.122 0.981-0.368 1.396c-0.246 0.415-0.582 0.74-1.008 0.975s-0.907 0.352-1.437 0.352c-0.532 0-1.015-0.12-1.446-0.356zM80.81 26.051c0.343-0.192 0.611-0.456 0.805-0.796 0.194-0.338 0.291-0.717 0.291-1.137 0-0.417-0.097-0.796-0.291-1.137-0.194-0.338-0.463-0.605-0.805-0.796s-0.726-0.287-1.151-0.287c-0.424 0-0.81 0.095-1.155 0.287s-0.616 0.456-0.812 0.796-0.296 0.717-0.296 1.137c0 0.417 0.099 0.796 0.296 1.137s0.467 0.605 0.812 0.796c0.345 0.192 0.729 0.287 1.155 0.287 0.424 0 0.808-0.095 1.151-0.287z"></path>
<path fill="#fff" d="M84.282 26.245c-0.388-0.397-0.582-0.977-0.582-1.737v-3.068h0.569v3.046c0 0.623 0.14 1.087 0.422 1.392 0.282 0.307 0.688 0.46 1.218 0.46 0.537 0 0.945-0.153 1.227-0.46s0.422-0.769 0.422-1.392v-3.046h0.553v3.068c0 0.76-0.194 1.338-0.58 1.737s-0.927 0.598-1.622 0.598-1.236-0.199-1.627-0.598z"></path>
<path fill="#fff" d="M94.306 21.442v5.356h-0.467l-3.452-4.345v4.345h-0.569v-5.356h0.467l3.459 4.345v-4.345h0.562z"></path>
<path fill="#fff" d="M97.099 21.931h-1.886v-0.49h4.341v0.49h-1.886v4.866h-0.569v-4.866z"></path>
<path fill="#fff" d="M104.122 26.798l-1.227-1.721c-0.138 0.016-0.282 0.023-0.429 0.023h-1.442v1.699h-0.569v-5.356h2.010c0.686 0 1.223 0.162 1.611 0.49s0.582 0.776 0.582 1.347c0 0.417-0.106 0.772-0.318 1.060s-0.514 0.496-0.909 0.623l1.311 1.836h-0.62zM103.671 24.264c0.282-0.235 0.422-0.564 0.422-0.988 0-0.433-0.14-0.767-0.422-0.999s-0.688-0.347-1.221-0.347h-1.426v2.687h1.426c0.532 0 0.939-0.117 1.221-0.352z"></path>
<path fill="#fff" d="M107.772 24.945v1.852h-0.559v-1.852l-2.148-3.504h0.607l1.841 3.007 1.841-3.007h0.569l-2.15 3.504z"></path>
<path fill="#fff" d="M113.372 21.931v2.105h2.777v0.49h-2.777v2.272h-0.569v-5.356h3.682v0.49h-3.113z"></path>
<path fill="#fff" d="M120.772 25.365h-2.992l-0.645 1.43h-0.591l2.455-5.356h0.559l2.455 5.356h-0.598l-0.643-1.43zM120.564 24.907l-1.288-2.876-1.288 2.876h2.576z"></path>
<path fill="#fff" d="M122.904 21.442h0.569v5.356h-0.569v-5.356z"></path>
<path fill="#fff" d="M128.887 26.798l-1.227-1.721c-0.138 0.016-0.282 0.023-0.429 0.023h-1.442v1.699h-0.569v-5.356h2.010c0.686 0 1.223 0.162 1.611 0.49s0.582 0.776 0.582 1.347c0 0.417-0.106 0.772-0.318 1.060s-0.514 0.496-0.909 0.623l1.311 1.836h-0.62zM128.433 24.264c0.282-0.235 0.422-0.564 0.422-0.988 0-0.433-0.14-0.767-0.422-0.999s-0.688-0.347-1.221-0.347h-1.426v2.687h1.426c0.532 0 0.939-0.117 1.221-0.352z"></path>
<path fill="#fff" d="M12.927 7.409c-0.332 0.083-0.483 0.273-0.625 0.76l-0.936 3.501 0.129 0.523c-0.415-0.016-0.544-0.023-0.65-0.023-0.181 0-0.293 0.007-0.544 0.023l-1.056-3.456-0.776 2.971 0.122 0.485c-0.354-0.016-0.483-0.023-0.611-0.023-0.167 0-0.287 0.007-0.557 0.023l-1.245-4.102c-0.151-0.472-0.271-0.623-0.544-0.684v-0.311c0.332 0.023 0.618 0.029 1.033 0.029 0.444 0 0.702-0.007 1.108-0.029v0.311c-0.226 0.023-0.361 0.151-0.361 0.334 0 0.106 0.038 0.327 0.097 0.532l0.776 2.773 0.754-2.908c-0.090-0.341-0.151-0.722-0.151-0.979v-0.061c0.309 0.016 0.467 0.023 0.663 0.023 0.212 0 0.347-0.007 0.596-0.023-0.007 0.273 0.045 0.555 0.167 0.995l0.86 2.946 0.747-2.946c0.038-0.144 0.052-0.235 0.052-0.318 0-0.228-0.106-0.318-0.422-0.365v-0.311c0.248 0.016 0.444 0.023 0.702 0.023 0.264 0 0.444-0.007 0.672-0.023v0.309z"></path>
<path fill="#fff" d="M18.051 8.185c-0.074-0.007-0.12-0.007-0.226-0.007-0.097 0-0.135 0-0.212 0.007-0.135-0.51-0.467-0.729-1.101-0.729h-1.155v1.891h0.914c0.49 0 0.679-0.174 0.708-0.638 0.083 0.007 0.12 0.007 0.18 0.007 0.052 0 0.090 0 0.174-0.007v1.611c-0.074-0.007-0.113-0.007-0.174-0.007s-0.097 0-0.18 0.007c-0.038-0.449-0.226-0.6-0.724-0.6h-0.898v2.127h1.281c0.602 0 0.86-0.077 1.124-0.327 0.174-0.174 0.293-0.365 0.399-0.638 0.174 0.061 0.235 0.077 0.399 0.083l-0.248 1.23c-0.512-0.023-1.854-0.029-3.386-0.029-0.776 0-1.033 0.007-1.464 0.029v-0.305c0.566-0.016 0.602-0.061 0.596-0.713v-3.052c0.007-0.652-0.029-0.699-0.596-0.713v-0.311c0.444 0.023 0.672 0.029 1.591 0.029 1.139 0 2.391-0.016 2.994-0.029v1.085z"></path>
<path fill="#fff" d="M23.542 12.194c-0.58-0.023-1.674-0.029-2.926-0.029-0.74 0-0.981 0.007-1.41 0.029v-0.305c0.566-0.016 0.602-0.061 0.596-0.722v-3.046c0.007-0.661-0.029-0.706-0.596-0.713v-0.311c0.338 0.023 0.679 0.029 1.245 0.029 0.573 0 0.905-0.007 1.236-0.029v0.311c-0.557 0.007-0.596 0.054-0.589 0.713v3.723h0.316c1.191 0 1.636-0.212 1.97-0.957 0.203 0.038 0.264 0.045 0.393 0.045l-0.235 1.261z"></path>
<path fill="#fff" d="M28.566 12.194c-0.58-0.023-1.674-0.029-2.926-0.029-0.74 0-0.981 0.007-1.41 0.029v-0.305c0.566-0.016 0.602-0.061 0.596-0.722v-3.046c0.007-0.661-0.029-0.706-0.596-0.713v-0.311c0.338 0.023 0.679 0.029 1.245 0.029 0.573 0 0.905-0.007 1.236-0.029v0.311c-0.557 0.007-0.596 0.054-0.589 0.713v3.723h0.316c1.191 0 1.636-0.212 1.97-0.957 0.203 0.038 0.264 0.045 0.393 0.045l-0.235 1.261z"></path>
<path fill="#fff" d="M31.743 7.409c-0.557 0.007-0.596 0.054-0.589 0.713v3.046c-0.007 0.661 0.029 0.706 0.589 0.713v0.311c-0.332-0.023-0.663-0.029-1.236-0.029-0.566 0-0.905 0.007-1.245 0.029v-0.311c0.566-0.007 0.602-0.054 0.596-0.713v-3.046c0.007-0.661-0.029-0.706-0.596-0.713v-0.311c0.338 0.023 0.679 0.029 1.245 0.029 0.573 0 0.905-0.007 1.236-0.029v0.311z"></path>
<path fill="#fff" d="M37.067 10.971v-2.847c0.007-0.668-0.023-0.706-0.611-0.713h-0.083v-0.311c0.354 0.016 0.557 0.023 0.875 0.023s0.505-0.007 0.86-0.023v0.311h-0.083c-0.589 0.007-0.618 0.045-0.611 0.713v3.303l0.573 0.767c-0.49-0.016-0.641-0.023-0.747-0.023-0.174 0-0.332 0.007-0.821 0.023l-3.003-3.948v2.924c-0.007 0.668 0.023 0.706 0.611 0.713h0.083v0.311c-0.354-0.016-0.557-0.023-0.866-0.023-0.316 0-0.512 0.007-0.866 0.023v-0.311h0.083c0.589-0.007 0.618-0.045 0.611-0.713v-3.389l-0.512-0.684c0.557 0.023 0.679 0.023 0.769 0.023 0.181 0 0.347-0.007 0.785-0.023l2.953 3.874z"></path>
<path fill="#fff" d="M43.269 8.465c-0.158-0.007-0.235-0.007-0.325-0.007s-0.158 0-0.293 0.007c-0.19-0.79-0.596-1.178-1.252-1.178-0.431 0-0.866 0.221-1.108 0.562-0.28 0.402-0.422 1.002-0.422 1.823 0 0.866 0.158 1.444 0.512 1.861 0.241 0.289 0.544 0.433 0.889 0.433 0.264 0 0.596-0.083 0.844-0.221v-0.927c0-0.402-0.068-0.472-0.505-0.501v-0.311c0.302 0.016 0.596 0.023 1.184 0.023 0.49 0 0.747-0.007 1.004-0.023v0.311c-0.316 0.083-0.37 0.16-0.37 0.485v0.873c-0.679 0.426-1.349 0.616-2.173 0.616-1.719 0-2.798-1.011-2.798-2.635 0-0.934 0.386-1.708 1.078-2.15 0.49-0.327 1.146-0.508 1.787-0.508 0.717 0 1.29 0.189 1.947 0.629v0.837z"></path>
<path fill="#fff" d="M48.738 8.329c-0.083-0.016-0.122-0.016-0.212-0.016-0.083 0-0.113 0-0.181 0.016-0.174-0.616-0.46-0.873-0.981-0.873h-0.347v3.713c-0.007 0.661 0.029 0.706 0.596 0.713v0.311c-0.338-0.023-0.679-0.029-1.245-0.029-0.573 0-0.905 0.007-1.236 0.029v-0.311c0.557-0.007 0.596-0.054 0.589-0.713v-3.713h-0.338c-0.467 0-0.808 0.305-0.988 0.873-0.068-0.016-0.106-0.016-0.181-0.016-0.083 0-0.129 0-0.212 0.016l0.052-1.23c0.566 0.023 1.23 0.029 2.504 0.029 1.117 0 1.6-0.007 2.118-0.029l0.063 1.23z"></path>
<path fill="#fff" d="M54.267 9.636c0 1.056-0.347 1.769-1.085 2.24-0.438 0.282-0.936 0.417-1.509 0.417-1.606 0-2.64-1.018-2.64-2.613 0-1.694 0.972-2.68 2.64-2.68 1.591 0 2.594 1.018 2.594 2.635zM50.678 7.88c-0.167 0.379-0.235 0.828-0.235 1.588 0 1.717 0.386 2.497 1.23 2.497 0.438 0 0.808-0.25 0.972-0.661 0.151-0.372 0.212-0.828 0.212-1.541 0-1.663-0.399-2.475-1.23-2.475-0.431 0-0.778 0.219-0.95 0.591z"></path>
<path fill="#fff" d="M59.443 10.971v-2.847c0.007-0.668-0.023-0.706-0.611-0.713h-0.083v-0.311c0.354 0.016 0.557 0.023 0.875 0.023s0.505-0.007 0.86-0.023v0.311h-0.083c-0.589 0.007-0.618 0.045-0.611 0.713v3.303l0.573 0.767c-0.49-0.016-0.641-0.023-0.747-0.023-0.174 0-0.332 0.007-0.821 0.023l-3.003-3.948v2.924c-0.007 0.668 0.023 0.706 0.611 0.713h0.083v0.311c-0.354-0.016-0.557-0.023-0.866-0.023-0.316 0-0.512 0.007-0.866 0.023v-0.311h0.083c0.589-0.007 0.618-0.045 0.611-0.713v-3.389l-0.512-0.684c0.557 0.023 0.679 0.023 0.769 0.023 0.181 0 0.347-0.007 0.785-0.023l2.953 3.874z"></path>
<path fill="#fff" d="M65.394 7.409c-0.557 0.007-0.596 0.054-0.589 0.713v3.046c-0.007 0.661 0.029 0.706 0.589 0.713v0.311c-0.332-0.023-0.663-0.029-1.236-0.029-0.566 0-0.905 0.007-1.245 0.029v-0.311c0.566-0.007 0.602-0.054 0.596-0.713v-3.046c0.007-0.661-0.029-0.706-0.596-0.713v-0.311c0.338 0.023 0.679 0.029 1.245 0.029 0.573 0 0.905-0.007 1.236-0.029v0.311z"></path>
<path fill="#fff" d="M70.721 10.971v-2.847c0.007-0.668-0.023-0.706-0.611-0.713h-0.083v-0.311c0.354 0.016 0.557 0.023 0.875 0.023 0.316 0 0.505-0.007 0.86-0.023v0.311h-0.083c-0.589 0.007-0.618 0.045-0.611 0.713v3.303l0.573 0.767c-0.49-0.016-0.641-0.023-0.747-0.023-0.174 0-0.332 0.007-0.821 0.023l-3.003-3.948v2.924c-0.007 0.668 0.023 0.706 0.611 0.713h0.083v0.311c-0.354-0.016-0.557-0.023-0.866-0.023-0.316 0-0.512 0.007-0.866 0.023v-0.311h0.083c0.589-0.007 0.618-0.045 0.611-0.713v-3.389l-0.512-0.684c0.557 0.023 0.679 0.023 0.769 0.023 0.18 0 0.347-0.007 0.785-0.023l2.953 3.874z"></path>
<path fill="#fff" d="M76.959 8.329c-0.083-0.016-0.122-0.016-0.212-0.016-0.083 0-0.113 0-0.18 0.016-0.174-0.616-0.46-0.873-0.981-0.873h-0.347v3.713c-0.007 0.661 0.029 0.706 0.596 0.713v0.311c-0.338-0.023-0.679-0.029-1.245-0.029-0.573 0-0.905 0.007-1.236 0.029v-0.311c0.557-0.007 0.596-0.054 0.589-0.713v-3.713h-0.338c-0.467 0-0.808 0.305-0.988 0.873-0.068-0.016-0.106-0.016-0.18-0.016-0.083 0-0.129 0-0.212 0.016l0.052-1.23c0.566 0.023 1.23 0.029 2.504 0.029 1.117 0 1.6-0.007 2.118-0.029l0.063 1.23z"></path>
<path fill="#fff" d="M82.127 8.185c-0.074-0.007-0.122-0.007-0.226-0.007-0.097 0-0.135 0-0.212 0.007-0.135-0.51-0.467-0.729-1.101-0.729h-1.155v1.891h0.911c0.49 0 0.679-0.174 0.708-0.638 0.083 0.007 0.122 0.007 0.18 0.007 0.052 0 0.090 0 0.174-0.007v1.611c-0.074-0.007-0.113-0.007-0.174-0.007s-0.097 0-0.18 0.007c-0.038-0.449-0.226-0.6-0.724-0.6h-0.898v2.127h1.281c0.602 0 0.86-0.077 1.124-0.327 0.174-0.174 0.293-0.365 0.399-0.638 0.174 0.061 0.235 0.077 0.399 0.083l-0.248 1.23c-0.512-0.023-1.854-0.029-3.386-0.029-0.776 0-1.033 0.007-1.464 0.029v-0.305c0.566-0.016 0.602-0.061 0.596-0.713v-3.052c0.007-0.652-0.029-0.699-0.596-0.713v-0.311c0.444 0.023 0.672 0.029 1.591 0.029 1.139 0 2.391-0.016 2.994-0.029v1.085z"></path>
<path fill="#fff" d="M88.614 12.194c-0.438-0.023-0.618-0.029-0.799-0.029s-0.361 0.007-0.808 0.029l-1.493-2.247h-0.46v1.223c-0.007 0.661 0.029 0.706 0.589 0.713v0.311c-0.332-0.023-0.663-0.029-1.214-0.029-0.544 0-0.875 0.007-1.214 0.029v-0.311c0.566-0.007 0.602-0.054 0.596-0.713v-3.046c0.007-0.652-0.029-0.699-0.596-0.713v-0.311c0.37 0.023 0.611 0.029 1.049 0.029 0.271 0 0.573-0.007 0.86-0.016 0.408-0.007 0.717-0.016 0.821-0.016 1.313 0 1.97 0.463 1.97 1.383 0 0.69-0.361 1.108-1.155 1.329l0.943 1.406c0.28 0.417 0.55 0.616 0.911 0.668v0.311zM85.054 9.613h0.158c0.544 0 0.853-0.099 1.094-0.356 0.189-0.205 0.293-0.472 0.293-0.774 0-0.645-0.399-1.024-1.072-1.024h-0.474v2.155z"></path>
<path fill="#fff" d="M93.699 10.971v-2.847c0.007-0.668-0.023-0.706-0.611-0.713h-0.083v-0.311c0.354 0.016 0.557 0.023 0.875 0.023 0.316 0 0.505-0.007 0.86-0.023v0.311h-0.083c-0.589 0.007-0.618 0.045-0.611 0.713v3.303l0.573 0.767c-0.49-0.016-0.641-0.023-0.747-0.023-0.174 0-0.332 0.007-0.821 0.023l-3.003-3.948v2.924c-0.007 0.668 0.023 0.706 0.611 0.713h0.083v0.311c-0.354-0.016-0.557-0.023-0.866-0.023-0.316 0-0.512 0.007-0.866 0.023v-0.311h0.083c0.589-0.007 0.618-0.045 0.611-0.713v-3.389l-0.512-0.684c0.557 0.023 0.679 0.023 0.769 0.023 0.18 0 0.347-0.007 0.785-0.023l2.953 3.874z"></path>
<path fill="#fff" d="M99.19 10.622c0.332 0.963 0.408 1.108 0.702 1.245v0.327c-0.377-0.023-0.65-0.029-1.139-0.029-0.438 0-0.724 0.007-1.040 0.029v-0.327c0.309-0.023 0.431-0.090 0.431-0.257 0-0.054-0.023-0.16-0.052-0.25l-0.257-0.783h-1.613l-0.271 0.79c-0.038 0.129-0.052 0.174-0.052 0.235 0 0.144 0.113 0.235 0.316 0.266v0.327c-0.264-0.016-0.393-0.016-0.557-0.016-0.142 0-0.28 0-0.602 0.016v-0.327c0.302-0.106 0.422-0.25 0.589-0.729l1.245-3.576-0.135-0.463c0.316 0.016 0.476 0.023 0.656 0.023s0.325-0.007 0.65-0.023l1.13 3.522zM97.056 8.086l-0.717 2.118h1.372l-0.654-2.118z"></path>
<path fill="#fff" d="M104.379 8.329c-0.083-0.016-0.122-0.016-0.212-0.016-0.083 0-0.113 0-0.18 0.016-0.174-0.616-0.46-0.873-0.981-0.873h-0.347v3.713c-0.007 0.661 0.029 0.706 0.596 0.713v0.311c-0.338-0.023-0.679-0.029-1.245-0.029-0.573 0-0.905 0.007-1.236 0.029v-0.311c0.557-0.007 0.596-0.054 0.589-0.713v-3.713h-0.338c-0.467 0-0.808 0.305-0.988 0.873-0.068-0.016-0.106-0.016-0.18-0.016-0.083 0-0.129 0-0.212 0.016l0.052-1.23c0.566 0.023 1.23 0.029 2.504 0.029 1.117 0 1.6-0.007 2.118-0.029l0.063 1.23z"></path>
<path fill="#fff" d="M107.368 7.409c-0.557 0.007-0.596 0.054-0.589 0.713v3.046c-0.007 0.661 0.029 0.706 0.589 0.713v0.311c-0.332-0.023-0.663-0.029-1.236-0.029-0.566 0-0.905 0.007-1.245 0.029v-0.311c0.566-0.007 0.602-0.054 0.596-0.713v-3.046c0.007-0.661-0.029-0.706-0.596-0.713v-0.311c0.338 0.023 0.679 0.029 1.245 0.029 0.573 0 0.905-0.007 1.236-0.029v0.311z"></path>
<path fill="#fff" d="M113.182 9.636c0 1.056-0.347 1.769-1.085 2.24-0.438 0.282-0.936 0.417-1.509 0.417-1.606 0-2.64-1.018-2.64-2.613 0-1.694 0.972-2.68 2.64-2.68 1.593 0 2.594 1.018 2.594 2.635zM109.593 7.88c-0.167 0.379-0.235 0.828-0.235 1.588 0 1.717 0.386 2.497 1.23 2.497 0.438 0 0.808-0.25 0.972-0.661 0.151-0.372 0.212-0.828 0.212-1.541 0-1.663-0.399-2.475-1.23-2.475-0.429 0-0.776 0.219-0.95 0.591z"></path>
<path fill="#fff" d="M118.358 10.971v-2.847c0.007-0.668-0.023-0.706-0.611-0.713h-0.083v-0.311c0.354 0.016 0.557 0.023 0.875 0.023 0.316 0 0.505-0.007 0.86-0.023v0.311h-0.083c-0.589 0.007-0.618 0.045-0.611 0.713v3.303l0.573 0.767c-0.49-0.016-0.641-0.023-0.747-0.023-0.174 0-0.332 0.007-0.821 0.023l-3.003-3.948v2.924c-0.007 0.668 0.023 0.706 0.611 0.713h0.083v0.311c-0.354-0.016-0.557-0.023-0.866-0.023-0.316 0-0.512 0.007-0.866 0.023v-0.311h0.083c0.589-0.007 0.618-0.045 0.611-0.713v-3.389l-0.512-0.684c0.557 0.023 0.679 0.023 0.769 0.023 0.18 0 0.347-0.007 0.785-0.023l2.953 3.874z"></path>
<path fill="#fff" d="M123.851 10.622c0.332 0.963 0.408 1.108 0.702 1.245v0.327c-0.377-0.023-0.65-0.029-1.139-0.029-0.438 0-0.724 0.007-1.040 0.029v-0.327c0.309-0.023 0.431-0.090 0.431-0.257 0-0.054-0.023-0.16-0.052-0.25l-0.257-0.783h-1.613l-0.271 0.79c-0.038 0.129-0.052 0.174-0.052 0.235 0 0.144 0.113 0.235 0.316 0.266v0.327c-0.264-0.016-0.393-0.016-0.557-0.016-0.142 0-0.28 0-0.602 0.016v-0.327c0.302-0.106 0.422-0.25 0.589-0.729l1.245-3.576-0.135-0.463c0.316 0.016 0.476 0.023 0.656 0.023s0.325-0.007 0.65-0.023l1.13 3.522zM121.715 8.086l-0.717 2.118h1.372l-0.654-2.118z"></path>
<path fill="#fff" d="M129.259 12.194c-0.58-0.023-1.674-0.029-2.926-0.029-0.74 0-0.981 0.007-1.41 0.029v-0.305c0.566-0.016 0.602-0.061 0.596-0.722v-3.046c0.007-0.661-0.029-0.706-0.596-0.713v-0.311c0.338 0.023 0.679 0.029 1.245 0.029 0.573 0 0.905-0.007 1.236-0.029v0.311c-0.557 0.007-0.596 0.054-0.589 0.713v3.723h0.316c1.191 0 1.636-0.212 1.97-0.957 0.203 0.038 0.264 0.045 0.393 0.045l-0.235 1.261z"></path>
</svg>
