<!-- Generated by IcoMoon.io -->
<svg version="1.1" xmlns="http://www.w3.org/2000/svg" width="172" height="32" viewBox="0 0 172 32">
<title>WCP_new</title>
<path fill="#fff" d="M53.333 0.131c-0.348 0.044-0.61 0.044-1.001 0.044s-0.697 0-1.045-0.044v0.479c0.479 0.087 0.653 0.218 0.653 0.566 0 0.131-0.044 0.261-0.087 0.479l-1.132 4.441-1.306-4.441c-0.174-0.653-0.261-1.088-0.261-1.48-0.392 0.044-0.566 0.044-0.914 0.044-0.305 0-0.522 0-1.001-0.044v0.087c0 0.392 0.087 0.958 0.218 1.48l-1.132 4.354-1.175-4.18c-0.087-0.305-0.131-0.653-0.131-0.784 0-0.261 0.218-0.479 0.566-0.522v-0.479c-0.61 0.044-1.001 0.044-1.654 0.044-0.61 0-1.045 0-1.567-0.044v0.479c0.392 0.087 0.61 0.305 0.827 1.045l1.872 6.139c0.392-0.044 0.61-0.044 0.827-0.044 0.174 0 0.392 0 0.914 0.044l-0.174-0.74 1.132-4.441 1.611 5.181c0.392-0.044 0.566-0.044 0.827-0.044 0.174 0 0.348 0 1.001 0.044l-0.174-0.784 1.35-5.268c0.218-0.74 0.435-1.001 0.958-1.132v-0.479z"></path>
<path fill="#fff" d="M61.388 0.131c-0.914 0.044-2.786 0.044-4.528 0.044-1.393 0-1.742 0-2.395-0.044v0.479c0.871 0.044 0.914 0.087 0.914 1.088v4.571c0 1.001-0.044 1.045-0.914 1.088v0.435c0.653-0.044 1.045-0.044 2.22-0.044 2.307 0 4.354 0 5.137 0.044l0.392-1.829c-0.261 0-0.348-0.044-0.61-0.131-0.174 0.392-0.348 0.697-0.61 0.958-0.392 0.392-0.784 0.479-1.698 0.479h-1.916v-3.178h1.35c0.74 0 1.045 0.218 1.088 0.914 0.131 0 0.174 0 0.261 0s0.131 0 0.261 0v-2.438c-0.131 0.044-0.174 0.044-0.261 0.044s-0.131 0-0.261-0.044c-0.044 0.697-0.348 0.958-1.088 0.958h-1.393v-2.83h1.742c0.958 0 1.437 0.348 1.654 1.088 0.131 0 0.174 0 0.305 0 0.174 0 0.218 0 0.348 0v-1.654z"></path>
<path fill="#fff" d="M69.965 5.921c-0.174 0-0.305 0-0.61-0.087-0.522 1.132-1.175 1.437-2.961 1.437h-0.479v-5.573c0-1.001 0.044-1.045 0.871-1.088v-0.479c-0.522 0.044-1.001 0.044-1.872 0.044s-1.35 0-1.872-0.044v0.479c0.871 0 0.914 0.087 0.914 1.088v4.571c0 1.001-0.044 1.045-0.914 1.088v0.435c0.653-0.044 1.001-0.044 2.133-0.044 1.872 0 3.527 0 4.441 0.044l0.348-1.872z"></path>
<path fill="#fff" d="M77.54 5.921c-0.174 0-0.305 0-0.61-0.087-0.522 1.132-1.175 1.437-2.961 1.437h-0.479v-5.573c0-1.001 0.044-1.045 0.871-1.088v-0.479c-0.522 0.044-1.001 0.044-1.872 0.044s-1.35 0-1.872-0.044v0.479c0.871 0 0.914 0.087 0.914 1.088v4.571c0 1.001-0.044 1.045-0.914 1.088v0.435c0.653-0.044 1.001-0.044 2.133-0.044 1.872 0 3.527 0 4.441 0.044l0.348-1.872z"></path>
<path fill="#fff" d="M82.199 0.131c-0.522 0.044-1.001 0.044-1.872 0.044s-1.35 0-1.872-0.044v0.479c0.871 0 0.914 0.087 0.914 1.088v4.571c0 1.001-0.044 1.045-0.914 1.088v0.479c0.522-0.044 1.045-0.044 1.872-0.044 0.871 0 1.35 0 1.872 0.044v-0.479c-0.827 0-0.914-0.087-0.871-1.088v-4.571c0-1.001 0.044-1.045 0.871-1.088v-0.479z"></path>
<path fill="#fff" d="M85.899 0.131c-0.653 0.044-0.914 0.044-1.175 0.044-0.131 0-0.305 0-1.175-0.044l0.784 1.045v5.094c0 1.001-0.044 1.045-0.914 1.088h-0.131v0.479c0.522-0.044 0.827-0.044 1.306-0.044s0.784 0 1.306 0.044v-0.479h-0.131c-0.871 0-0.914-0.087-0.914-1.088v-4.397l4.528 5.921c0.74-0.044 1.001-0.044 1.263-0.044 0.174 0 0.392 0 1.132 0.044l-0.871-1.132v-4.963c0-1.001 0.044-1.045 0.914-1.088h0.131v-0.479c-0.522 0.044-0.827 0.044-1.306 0.044s-0.784 0-1.306-0.044v0.479h0.131c0.871 0 0.914 0.087 0.914 1.088v4.267l-4.484-5.834z"></path>
<path fill="#fff" d="M100.31 0.958c-1.001-0.653-1.872-0.958-2.961-0.958-0.958 0-1.959 0.261-2.699 0.784-1.045 0.653-1.611 1.829-1.611 3.222 0 2.438 1.611 3.962 4.223 3.962 1.263 0 2.264-0.305 3.265-0.914v-1.306c0-0.479 0.087-0.61 0.566-0.74v-0.479c-0.392 0.044-0.784 0.044-1.524 0.044-0.871 0-1.35 0-1.785-0.044v0.479c0.653 0.044 0.784 0.131 0.784 0.74v1.393c-0.392 0.218-0.871 0.348-1.263 0.348-0.522 0-1.001-0.218-1.35-0.653-0.522-0.61-0.784-1.48-0.784-2.786 0-1.219 0.218-2.133 0.653-2.743 0.348-0.522 1.045-0.827 1.654-0.827 1.001 0 1.611 0.566 1.872 1.785 0.218 0 0.305 0 0.435 0s0.261 0 0.479 0v-1.306h0.044z"></path>
<path fill="#fff" d="M109.018 0.131c-0.784 0.044-1.524 0.044-3.222 0.044-1.916 0-2.917 0-3.788-0.044l-0.087 1.829c0.131-0.044 0.174-0.044 0.305-0.044s0.174 0 0.261 0.044c0.261-0.871 0.784-1.306 1.48-1.306h0.522v5.573c0 1.001-0.044 1.045-0.871 1.088v0.479c0.522-0.044 1.001-0.044 1.872-0.044s1.35 0 1.872 0.044v-0.479c-0.871 0-0.914-0.087-0.914-1.088v-5.529h0.522c0.784 0 1.219 0.392 1.48 1.306 0.087-0.044 0.131-0.044 0.261-0.044s0.174 0 0.305 0.044v-1.872z"></path>
<path fill="#fff" d="M113.894 0c-2.525 0-4.005 1.48-4.005 4.005 0 2.395 1.567 3.918 4.005 3.918 0.871 0 1.611-0.218 2.264-0.61 1.132-0.697 1.654-1.785 1.654-3.352 0-2.438-1.524-3.962-3.918-3.962v0zM113.807 0.435c1.263 0 1.872 1.219 1.872 3.701 0 1.088-0.087 1.742-0.305 2.307-0.261 0.61-0.827 1.001-1.48 1.001-1.263 0-1.872-1.175-1.872-3.744 0-1.132 0.087-1.829 0.348-2.395 0.261-0.522 0.784-0.871 1.437-0.871v0z"></path>
<path fill="#fff" d="M121.6 0.131c-0.653 0.044-0.914 0.044-1.175 0.044-0.131 0-0.305 0-1.175-0.044l0.784 1.045v5.094c0 1.001-0.044 1.045-0.914 1.088h-0.131v0.479c0.522-0.044 0.827-0.044 1.306-0.044s0.784 0 1.306 0.044v-0.479h-0.131c-0.871 0-0.914-0.087-0.914-1.088v-4.397l4.528 5.921c0.74-0.044 1.001-0.044 1.263-0.044 0.174 0 0.392 0 1.132 0.044l-0.871-1.132v-4.963c0-1.001 0.044-1.045 0.914-1.088h0.131v-0.479c-0.522 0.044-0.827 0.044-1.306 0.044s-0.784 0-1.306-0.044v0.479h0.131c0.871 0 0.914 0.087 0.914 1.088v4.267l-4.484-5.834z"></path>
<path fill="#fff" d="M7.619 29.605c0.871 0 1.567-0.131 2.177-0.435s1.263-0.74 1.916-1.35l1.567 1.611c-1.567 1.698-3.439 2.569-5.616 2.569-2.22 0-4.049-0.697-5.486-2.133s-2.177-3.222-2.177-5.399c0-2.177 0.74-4.005 2.22-5.442s3.352-2.177 5.616-2.177c2.264 0 4.136 0.827 5.66 2.525l-1.567 1.698c-0.697-0.653-1.35-1.132-1.959-1.393s-1.35-0.392-2.177-0.392c-1.48 0-2.699 0.479-3.701 1.437s-1.524 2.177-1.524 3.657c0 1.48 0.479 2.743 1.48 3.701 1.001 1.001 2.177 1.524 3.57 1.524v0z"></path>
<path fill="#fff" d="M26.645 20.68c-1.001-1.045-2.22-1.567-3.657-1.567s-2.656 0.522-3.657 1.567c-1.001 1.045-1.48 2.264-1.48 3.744s0.479 2.743 1.48 3.744c1.001 1.045 2.22 1.567 3.657 1.567s2.656-0.522 3.657-1.567c1.001-1.045 1.48-2.264 1.48-3.744s-0.479-2.699-1.48-3.744v0zM28.473 29.823c-1.48 1.437-3.309 2.177-5.486 2.177s-4.005-0.74-5.486-2.177c-1.48-1.437-2.22-3.222-2.22-5.399 0-2.133 0.74-3.962 2.22-5.399s3.309-2.177 5.486-2.177c2.177 0 4.005 0.74 5.486 2.177s2.22 3.222 2.22 5.399c-0.044 2.177-0.74 3.962-2.22 5.399v0z"></path>
<path fill="#fff" d="M37.268 28.473c0.653 0.784 1.567 1.175 2.699 1.175s2.046-0.392 2.699-1.175c0.653-0.784 1.001-1.829 1.001-3.178v-8.054h2.482v8.185c0 2.090-0.566 3.744-1.742 4.876s-2.656 1.698-4.441 1.698c-1.829 0-3.309-0.566-4.441-1.698-1.175-1.132-1.742-2.743-1.742-4.876v-8.185h2.482v8.098c0 1.306 0.348 2.395 1.001 3.135v0z"></path>
<path fill="#fff" d="M61.214 17.241h2.482v14.585h-2.699l-8.272-10.667v10.667h-2.482v-14.585h2.482l8.49 10.884v-10.884z"></path>
<path fill="#fff" d="M73.448 19.505v12.321h-2.438v-12.321h-4.441v-2.264h11.32v2.264h-4.441z"></path>
<path fill="#fff" d="M92.473 21.986c0 2.395-1.045 3.918-3.178 4.571l3.831 5.312h-3.135l-3.483-4.92h-3.222v4.92h-2.482v-14.629h5.399c2.22 0 3.831 0.392 4.789 1.132s1.48 1.959 1.48 3.614v0zM86.335 24.686c1.393 0 2.351-0.218 2.83-0.653 0.522-0.435 0.74-1.132 0.74-2.090s-0.261-1.611-0.784-1.959c-0.522-0.348-1.437-0.522-2.743-0.522h-3.135v5.224h3.091z"></path>
<path fill="#fff" d="M101.703 31.826h-2.525v-5.747l-5.442-8.838h2.699l4.005 6.618 4.005-6.618h2.699l-5.442 8.838v5.747z"></path>
<path fill="#fff" d="M119.728 17.241c2.22 0 3.831 0.435 4.833 1.263 1.001 0.871 1.524 2.177 1.524 3.918 0 1.785-0.522 3.048-1.567 3.875s-2.612 1.219-4.789 1.219h-2.612v4.267h-2.482v-14.541h5.094zM120.033 25.295c1.35 0 2.307-0.261 2.786-0.784s0.74-1.306 0.74-2.307c0-1.001-0.305-1.741-0.958-2.133-0.61-0.435-1.611-0.61-2.961-0.61h-2.525v5.834h2.917z"></path>
<path fill="#fff" d="M130.482 28.517l-1.48 3.309h-2.656l6.444-14.629h2.656l6.487 14.629h-2.656l-1.48-3.309h-7.314zM136.838 26.253l-2.656-6.008-2.656 6.008h5.312z"></path>
<path fill="#fff" d="M155.82 21.986c0 2.395-1.045 3.918-3.178 4.571l3.831 5.312h-3.135l-3.483-4.92h-3.222v4.92h-2.482v-14.629h5.442c2.22 0 3.831 0.392 4.789 1.132s1.437 1.959 1.437 3.614v0zM149.682 24.686c1.393 0 2.351-0.218 2.83-0.653 0.522-0.435 0.74-1.132 0.74-2.090s-0.261-1.611-0.784-1.959c-0.522-0.348-1.437-0.522-2.743-0.522h-3.135v5.224h3.091z"></path>
<path fill="#fff" d="M159.565 17.241h2.482v7.097l6.705-7.097h3.135l-5.878 6.4 5.965 8.185h-2.917l-4.876-6.4-2.133 2.307v4.093h-2.482v-14.585z"></path>
</svg>
