<svg xmlns="http://www.w3.org/2000/svg" viewBox="0 0 512 512">
  <defs>
    <linearGradient id="g" x1="0" y1="0" x2="1" y2="1">
      <stop offset="0%" stop-color="#3B82F6"/>
      <stop offset="100%" stop-color="#1D4ED8"/>
    </linearGradient>
  </defs>
  <circle cx="256" cy="256" r="256" fill="url(#g)"/>
  <path fill-rule="evenodd" d="M256 80C158.8 80 80 158.8 80 256c0 55.2 25.4 104.4 65.1 136.7L230 248c-1.3-4.8-2-9.8-2-15 0-30.9 25.1-56 56-56s56 25.1 56 56-25.1 56-56 56c-5.2 0-10.2-.7-15-2L184 432c22.4 10.4 47.3 16 73.5 16 97.2 0 176-78.8 176-176S353.2 80 256 80zm0 128c-18.2 0-33 14.8-33 33s14.8 33 33 33 33-14.8 33-33-14.8-33-33-33z" fill="#FFFFFF"/>
</svg>
